<svg width="285" height="140" viewBox="0 0 285 140" fill="none" xmlns="http://www.w3.org/2000/svg">
<path d="M186.689 139.594C185.04 136.751 183.033 134.141 180.93 131.576C180.367 130.889 180.048 130.001 180.843 129.173C181.557 128.436 181.471 127.673 180.811 126.971C180.183 126.3 180.4 125.346 179.837 124.659C179.681 124.472 179.686 124.088 179.908 124.033C181.357 123.649 180.681 122.776 180.476 122.023C180.362 121.609 180.519 121.321 180.941 121.347C181.936 121.397 182.849 121.003 183.899 121.16C185.548 121.402 187.132 120.731 188.668 120.221C192.156 119.06 195.768 118.388 199.375 117.641C206.146 116.247 213.019 115.566 219.892 114.834C220.827 114.733 221.255 114.313 221.147 113.455C221.017 112.445 220.93 111.42 220.406 110.491C219.773 109.36 219.843 108.441 221.282 107.921C221.736 107.755 221.985 107.462 222.05 106.982C222.553 103.292 222.461 99.5856 222.358 95.8846C222.325 94.6325 221.46 95.1424 220.779 95.198C218.426 95.3949 216.442 96.5713 214.3 97.3085C211.526 98.2678 208.747 99.2119 205.94 100.095C203.588 100.838 201.468 102.019 199.402 103.307C197.066 104.761 192.962 102.898 192.589 100.318C192.481 99.5856 192.297 98.8585 192.129 98.1314C191.918 97.2277 191.907 96.3996 192.756 95.7079C193.573 95.0415 193.027 93.8802 193.843 93.0824C194.249 92.6836 194.654 92.1888 195.141 92.0323C199.381 90.6791 203.074 88.1799 207.379 86.9631C210.007 86.2209 212.256 84.7819 214.657 83.6156C216.545 82.6967 218.545 81.9494 220.557 81.293C223.082 80.465 223.683 79.9651 223.845 77.481C224.067 74.0073 225.1 70.6598 225.543 67.2265C225.613 66.6711 225.884 66.0804 225.37 65.6512C224.867 65.2271 224.305 65.6512 223.829 65.8128C219.2 67.3679 214.419 68.4837 209.78 70.0136C207.681 70.7053 205.41 70.9224 203.134 70.7406C201.473 70.6094 200.911 69.4834 200.457 68.2767C200.213 67.6304 200.235 66.757 199.321 66.6509C198.467 66.55 198.061 67.3174 197.65 67.8728C196.406 69.5592 194.871 70.9729 193.319 72.4118C191.88 73.7448 190.485 75.1484 189.16 76.5773C187.635 78.2232 185.802 79.1422 183.634 79.7733C182.195 80.1924 180.93 81.1163 179.188 81.1163C179.453 80.4398 179.767 79.8642 179.745 79.2078C179.74 79.0109 179.94 78.6423 180.075 78.6322C181.8 78.4959 182.509 76.7792 184.072 76.4208C184.45 76.3349 184.656 76.1178 184.85 75.825C186.9 72.6895 188.414 69.3219 190.015 65.9693C191.604 62.6471 192.448 59.1279 193.697 55.73C194.687 53.0439 195.374 50.2165 195.995 47.3991C196.379 45.6572 196.444 43.8396 197.201 42.1583C198.218 39.8913 197.856 37.5031 197.672 35.1553C197.58 34.0344 196.634 33.166 196.288 32.03C195.979 31.0303 195.736 30.1366 195.931 29.1571C196.066 28.4906 195.32 27.6929 196.044 27.2132C196.985 26.5922 198.164 26.88 199.181 27.0668C202.095 27.5919 205.037 28.112 207.817 29.1066C210.023 29.8993 212.262 30.8081 213.862 32.4642C215.463 34.1203 215.258 36.3014 214.922 38.3362C214.722 39.5631 214.187 40.7445 213.77 41.9412C213.565 42.5319 213.186 43.0974 212.592 43.3448C210.466 44.2435 209.239 45.8743 208.439 47.7879C207.476 50.0801 205.946 52.1098 205.032 54.4172C204.837 54.912 204.34 55.4371 204.788 55.9774C205.226 56.5075 205.821 56.144 206.313 55.9976C210.418 54.7707 214.528 53.5387 218.616 52.2714C221.493 51.3777 224.342 50.4134 227.214 49.4945C228.149 49.1966 228.355 48.4746 228.36 47.7172C228.371 42.0825 228.56 36.4428 228.209 30.8132C228.058 28.3795 228.398 25.956 228.312 23.5174C228.225 20.9828 228.717 18.3876 228.02 15.9136C227.446 13.8839 227.587 11.6573 226.268 9.81944C225.851 9.2388 225.786 8.48145 225.884 7.93616C226.235 5.95695 224.797 4.02824 225.986 1.98339C226.987 0.261685 228.56 -0.0412552 230.231 0.00418574C234.174 0.115264 237.007 2.25604 239.17 5.05318C242.134 8.88537 242.285 13.3184 241.642 17.8271C241.35 19.8568 241.685 21.9168 241.247 23.9516C240.879 25.6581 240.538 27.395 240.501 29.1217C240.468 30.5001 239.922 31.9593 240.798 33.3074C240.939 33.5245 240.922 33.8527 240.912 34.1304C240.771 36.978 241.355 39.7953 241.247 42.648C241.166 44.7989 241.458 44.9049 243.61 44.4858C246.99 43.8295 250.245 42.8298 253.425 41.6029C253.652 41.517 253.917 41.4009 254.139 41.4413C256.28 41.8301 258.459 42.1684 260.26 43.4155C261.077 43.9809 261.601 44.7686 261.374 45.8289C261.25 46.4095 261.482 46.975 261.877 47.3991C262.445 48.01 262.375 48.7674 262.623 49.444C263.272 51.2364 262.542 52.1603 260.768 52.5895C258.643 53.1045 258.346 55.1594 257.07 56.3914C256.394 57.0477 255.885 57.4012 254.912 57.0679C253.041 56.4217 251.175 56.7347 249.342 57.2851C247.493 57.8404 245.659 58.4261 243.81 58.9866C241.901 59.5622 240.468 60.5366 240.073 62.5209C239.284 66.4944 238.613 70.4781 238.224 74.5021C238.137 75.411 238.089 75.9411 239.56 75.4513C241.842 74.6889 244.243 74.0376 246.725 75.3302C247.671 75.8199 249.001 75.83 250.142 75.7947C252.614 75.724 254.09 77.5063 256.048 78.3798C256.307 78.4959 256.237 79.1674 256.404 79.5461C256.907 80.6973 257.124 81.9242 257.886 83.0147C258.622 84.07 257.135 87.4579 255.82 88.1092C254.652 88.6848 253.739 89.3916 253.949 90.8003C254.009 91.1992 253.857 91.6788 253.441 91.6839C252.068 91.7041 250.899 92.3756 249.612 92.6684C245.876 93.5116 242.199 92.7189 238.494 92.628C236.634 92.5826 236.504 92.8199 236.391 94.5466C236.039 99.8178 235.661 105.084 235.212 110.35C235.028 112.496 235.693 113.334 237.959 113.147C244.118 112.637 250.272 112.016 256.469 112.041C256.81 112.041 257.259 112.122 257.389 111.738C257.535 111.304 257.113 111.072 256.783 110.875C256.253 110.552 255.696 110.264 255.004 109.875C255.88 109.36 256.718 109.477 257.508 109.482C261.158 109.517 264.759 109.865 268.258 110.905C269.302 111.213 270.302 110.643 271.519 111.011C273.12 111.491 274.52 112.203 275.85 113.016C277.181 113.834 278.689 114.248 280.036 115.046C281.858 116.121 283.194 117.302 283.675 119.332C283.892 120.251 284.546 121.079 285 121.948V122.791C283.675 123.563 282.897 124.952 281.599 125.669C279.576 126.784 277.786 128.239 275.558 129.077C273.823 129.728 272.162 130.607 270.329 130.945C268.853 131.218 267.312 131.071 266.182 129.9C265.689 129.395 265.084 129.339 264.408 129.324C262.407 129.274 260.401 128.92 258.654 128.102C256.605 127.143 254.517 126.047 252.311 126.057C245.93 126.083 239.549 125.199 233.162 125.951C232.708 126.007 232.205 126.068 231.664 125.724C231.929 125.547 232.086 125.351 232.232 125.356C234.947 125.482 237.634 125.063 240.355 125.043C244.551 125.012 248.753 125.027 252.954 124.977C254.041 124.962 254.993 124.669 255.977 124.361C256.291 124.265 256.545 124.109 256.54 123.79C256.54 123.397 256.231 123.23 255.847 123.195C254.755 123.089 253.668 122.932 252.576 122.897C250.472 122.831 248.369 122.841 246.271 122.811C245.827 122.806 245.319 122.877 245.059 122.427C244.637 121.71 243.934 121.761 243.226 121.761C242.074 121.761 240.922 121.741 239.771 121.771C238.884 121.791 237.786 122.21 237.153 121.867C236.039 121.261 235.12 121.756 234.12 121.801C233.752 121.816 233.357 121.998 233.357 122.357C233.357 122.861 233.865 122.639 234.168 122.7C234.552 122.771 235.012 122.584 235.482 123.094C232.281 123.397 229.263 123.684 226.246 123.972C226.235 123.856 226.224 123.74 226.213 123.624C226.852 123.472 227.495 123.316 228.133 123.164C227.225 123.063 226.468 122.614 225.565 122.574C222.807 122.447 220.146 123.205 217.41 123.22C215.182 123.23 213.051 124.088 210.802 124.043C210.499 124.038 210.164 124.124 210.153 124.482C210.147 124.841 210.477 124.891 210.78 124.942C211.251 125.017 211.78 124.805 212.408 125.346C209.98 125.406 208.103 126.512 206.086 127.239C205.464 127.461 204.296 127.552 204.518 128.35C204.669 128.9 205.751 128.562 206.432 128.491C207.752 128.35 209.077 128.223 210.396 128.092C210.429 128.249 210.466 128.4 210.499 128.557C207.865 128.688 205.708 130.041 203.296 130.743C201.468 131.278 199.813 132.136 198.342 133.283C197.818 133.692 197.618 134.378 196.899 134.656C195.817 135.075 194.936 135.731 194.476 136.802C194.265 137.286 193.951 137.69 193.286 137.736C191.296 137.872 189.414 138.301 187.9 139.624H186.7L186.689 139.594Z" fill="url(#paint0_linear_16_419)"/>
<path d="M0.0108153 103.998C2.08736 103.115 4.03412 102.085 6.47838 101.984C10.7234 101.812 14.8062 100.666 18.8944 99.6108C28.2172 97.2125 37.3778 94.2993 46.7709 92.108C51.946 90.9013 57.1536 89.8562 62.3557 88.7858C64.3025 88.3869 66.179 87.7103 68.2393 87.7608C69.0126 87.781 69.429 87.0287 69.7696 86.3724C71.711 82.6563 73.382 78.8695 74.6528 74.8808C76.0317 70.5488 76.5779 66.1107 77.5296 61.7232C77.8811 60.1075 78.1786 58.4716 78.5571 56.861C79.3088 53.6801 80.1578 50.479 80.2064 47.172C80.2173 46.3843 79.8928 46.4701 79.3196 46.6216C75.2043 47.7223 71.181 49.0805 67.1794 50.4992C65.7896 50.994 64.3349 51.3778 62.8749 51.6353C61.9448 51.7968 61.5824 52.2462 61.4581 52.9985C61.2418 54.3264 61.0471 55.6644 60.8524 56.9973C60.82 57.2296 60.7713 57.482 60.8416 57.6941C61.6906 60.2287 61.4743 62.8945 61.9339 65.4796C62.1881 66.9236 62.6261 68.3525 62.5883 69.847C62.545 71.7404 63.6968 73.3611 64.0808 75.1787C64.4647 76.9913 64.7892 78.8342 65.5246 80.5812C65.8275 81.3032 65.5949 82.005 64.8433 82.4038C63.8537 82.9289 63.6374 83.863 63.7185 84.691C63.805 85.5696 63.5508 86.332 63.4102 87.2105C62.8641 87.16 62.4585 86.9075 62.2097 86.5188C61.8096 85.8977 61.4256 85.7261 60.8146 86.3118C60.2576 86.847 59.8628 86.2158 59.5924 85.9735C58.9543 85.3979 58.3595 84.7466 57.8998 84.0347C55.077 79.6774 52.2056 75.3857 50.6536 70.3872C49.3071 66.0552 48.2796 61.7131 47.6793 57.2548C47.3657 54.9323 46.4518 53.4428 43.6452 53.9679C40.06 54.6344 37.2047 52.9127 34.2197 51.716C33.0246 51.2364 32.1215 50.0701 31.1752 49.136C30.6074 48.5806 31.0508 48.1868 31.6997 48.0707C32.8191 47.8738 33.9493 47.6163 35.0849 47.5961C38.2538 47.5304 41.201 46.5105 44.2455 45.8895C44.916 45.7532 44.8782 45.3442 45.0134 44.8797C45.6298 42.8046 44.9809 40.7951 44.5321 38.831C43.7047 35.2361 42.9476 31.621 42.1852 28.0211C41.8066 26.2186 41.0766 24.5373 40.7251 22.75C40.5737 21.9775 39.8707 21.6341 39.2488 21.2555C37.4264 20.1396 35.9826 18.7007 35.0687 16.8477C34.4035 15.5046 34.7442 14.4545 36.3179 14.0404C37.832 13.6416 38.9243 12.965 39.9572 11.8896C40.7413 11.0767 42.0283 11.006 43.1856 11.1676C45.6136 11.5109 47.9173 12.2935 50.1615 13.1922C53.7089 14.6059 55.3745 17.1557 56.1802 20.7152C56.7588 23.2851 57.2888 25.9409 58.2675 28.4402C59.2409 30.9344 59.0895 33.5245 59.3329 36.0844C59.4248 37.0538 59.4572 38.0383 59.6681 38.9875C59.8736 39.9165 60.3982 40.5679 61.6473 40.3104C63.8591 39.8509 65.8761 38.9017 67.904 38.0484C69.1369 37.5284 70.451 37.281 71.6731 36.7407C72.8682 36.2156 73.9822 35.6905 74.8096 34.6908C75.2747 34.1253 75.956 33.8224 76.7455 33.7467C78.8275 33.5498 80.3038 32.2168 81.9098 31.1969C83.397 30.2528 83.9648 28.6623 84.0242 27.0769C84.1216 24.5726 85.0787 22.2148 85.1436 19.6903C85.2193 16.5548 85.8953 13.4346 85.5654 10.2789C85.3816 8.52693 84.5001 8.04728 82.8021 8.73899C82.4777 8.87027 81.8504 9.21865 81.8233 8.7087C81.7909 8.08767 80.8608 7.27478 81.6935 6.89106C83.3375 6.13371 83.4186 4.58872 83.9918 3.35171C84.3433 2.59941 85.295 1.75623 84.3217 0.620205C84.0134 0.256677 85.3383 0.0799625 85.5492 0.271824C86.9876 1.62496 89.0209 0.993831 90.7243 1.59971C92.1736 2.11471 93.8824 2.11976 95.2073 3.19014C95.9806 3.81622 96.6079 4.58367 97.3163 5.24509C98.679 6.51743 100.188 7.56762 101.756 8.52188C104.649 10.284 105.931 14.5706 104.86 17.8676C104.141 20.0891 103.167 22.2602 102.946 24.6433C102.756 26.7134 103.054 27.7182 105.211 28.0918C107.001 28.4048 108.597 29.243 109.857 30.1063C111.095 30.9596 112.231 32.338 113.166 33.6861C114.778 36.0036 114.74 36.7963 112.701 38.8714C112.598 38.9724 112.506 39.0885 112.442 39.2147C111.793 40.5325 110.906 41.3959 109.392 42.1482C107.959 42.8551 106.601 43.4054 105.049 43.6679C104.411 43.774 103.773 43.9911 103.14 43.9709C101.221 43.9103 100.561 45.1978 99.8092 46.4701C99.3225 47.2931 98.8953 48.1666 98.7601 49.0653C98.3924 51.4939 96.2564 53.1348 95.6345 55.4271C94.7639 58.6382 92.8279 61.4354 91.6166 64.5304C89.9673 68.7463 87.8691 72.8461 85.5762 76.7995C84.1054 79.3341 82.6345 81.9393 80.5201 84.1205C80.1686 84.484 79.6494 84.9283 80.0009 85.4534C80.293 85.8877 80.9311 85.6756 81.4123 85.6756C82.7588 85.6756 84.2027 86.0745 85.414 85.8321C87.0039 85.514 88.6208 85.2818 90.216 84.9586C90.4594 84.9081 90.7189 84.8274 90.9515 84.8627C93.1307 85.2262 95.0991 84.4436 96.9431 83.6509C98.9602 82.7825 100.912 83.2319 102.924 83.1561C105.022 83.0754 106.417 84.2922 108.115 84.9081C109.511 85.413 110.944 85.7917 112.355 86.231C113.783 86.6702 114.848 87.3468 114.951 88.917C115.026 90.0733 116.097 90.8003 116.643 91.7445C117.714 93.6076 116.703 95.0112 116.205 96.6016C115.362 99.2826 112.993 98.9494 110.787 99.1968C109.619 99.3281 108.472 99.7572 107.256 99.8027C106.807 99.8178 106.304 99.9996 105.931 99.7774C104.465 98.909 102.697 98.6869 101.242 97.7932C100.009 97.0358 98.5276 96.7783 97.1432 96.6067C93.8337 96.2027 90.5134 96.1371 87.1499 96.5259C83.9107 96.8995 80.6607 97.3034 77.3728 97.3943C74.3013 97.4801 71.2838 98.1264 68.2393 98.5051C65.0758 98.8989 61.9448 99.4594 58.8948 100.222C54.2929 101.373 49.6477 102.388 45.1648 103.983C42.6664 104.872 40.0924 105.609 37.6427 106.634C36.691 107.033 35.723 107.396 34.7875 107.831C28.0441 110.946 20.879 112.986 13.5408 114.268C10.8802 114.733 8.07364 113.384 6.02954 111.436C5.09942 110.547 4.42887 109.441 3.36897 108.623C2.78495 108.174 2.2604 107.548 2.03869 106.796C1.71423 105.71 0.92471 104.948 0 104.281V103.998H0.0108153Z" fill="url(#paint1_linear_16_419)"/>
<path d="M87.3878 103.983C88.0422 103.539 88.5667 103.322 88.8966 102.787C90.2431 100.59 93.0064 100.045 95.3155 101.55C97.8246 103.186 100.258 104.897 102.291 107.088C103.584 108.477 105.125 109.653 106.309 111.168C108.629 114.127 109.148 117.449 108.883 120.948C108.743 122.791 109.035 124.619 108.71 126.487C108.472 127.84 107.293 128.723 107.185 130.051C107.174 130.167 106.877 130.354 106.72 130.349C104.227 130.263 101.799 131.061 99.209 129.996C96.0076 128.678 92.9361 127.057 89.5239 126.133C87.6907 125.633 86.0413 124.558 84.3 123.755C83.9053 123.573 83.6295 123.255 83.5754 122.907C83.3591 121.478 82.256 120.968 81.0014 120.529C80.1794 120.241 79.6116 119.893 80.7202 119.13C81.0338 118.913 82.1532 118.504 81.1095 117.646C80.6228 117.247 81.3367 117.065 81.6773 117.111C82.5642 117.232 83.424 117.535 84.3109 117.595C86.5118 117.747 88.7019 117.59 90.8487 117.09C92.3142 116.747 92.882 115.889 92.59 114.541C92.2385 112.9 91.9086 111.254 91.5355 109.623C91.0001 107.275 89.7185 105.372 87.3878 103.978V103.983Z" fill="url(#paint2_linear_16_419)"/>
<path d="M36.9287 113.844C37.6533 115.636 39.3242 116.05 40.6005 116.878C41.5144 117.474 42.5634 117.575 43.38 116.576C43.4665 116.469 43.6125 116.343 43.7423 116.338C44.3317 116.308 44.7589 115.5 45.3592 115.919C45.8621 116.268 45.5809 116.939 45.4457 117.363C44.7968 119.373 45.7377 120.645 47.452 121.69C48.858 122.548 49.8205 123.876 51.2535 124.77C52.5568 125.583 52.5298 129.006 51.5672 130.213C51.0697 130.839 50.7236 131.571 50.2315 132.202C48.8309 133.984 47.2951 134.56 45.3646 133.682C43.7585 132.954 41.8604 133.187 40.249 132.429C39.9894 132.308 39.6163 132.207 39.5135 132C37.8209 128.693 35.09 125.785 35.0576 121.832C35.0468 120.837 34.3925 119.953 34.4465 118.873C34.5222 117.318 34.8305 115.98 36.2905 115.02C36.5663 114.839 36.642 114.399 36.9287 113.844Z" fill="url(#paint3_linear_16_419)"/>
<defs>
<linearGradient id="paint0_linear_16_419" x1="179" y1="84" x2="285" y2="75.5" gradientUnits="userSpaceOnUse">
<stop stop-color="#2243BD"/>
<stop offset="1" stop-color="#1847CB"/>
</linearGradient>
<linearGradient id="paint1_linear_16_419" x1="-7.54426e-07" y1="87.4271" x2="121.909" y2="52.4015" gradientUnits="userSpaceOnUse">
<stop stop-color="#3E389A"/>
<stop offset="1" stop-color="#2E3FAD"/>
</linearGradient>
<linearGradient id="paint2_linear_16_419" x1="80.1035" y1="123.513" x2="110.388" y2="115.319" gradientUnits="userSpaceOnUse">
<stop stop-color="#3E389A"/>
<stop offset="1" stop-color="#2E3FAD"/>
</linearGradient>
<linearGradient id="paint3_linear_16_419" x1="34.4434" y1="129.311" x2="53.3731" y2="124.644" gradientUnits="userSpaceOnUse">
<stop stop-color="#3E389A"/>
<stop offset="1" stop-color="#2E3FAD"/>
</linearGradient>
</defs>
</svg>
