<svg id="add_button" xmlns="http://www.w3.org/2000/svg" width="35" height="35" viewBox="0 0 35 35">
  <path id="Path_22" data-name="Path 22" d="M17.5,0A17.5,17.5,0,1,0,35,17.5,17.519,17.519,0,0,0,17.5,0Zm0,0" fill="#947be5"/>
  <path id="Path_23" data-name="Path 23" d="M138.236,132.482h-5.753v5.753a1.354,1.354,0,0,1-2.707,0v-5.753h-5.753a1.354,1.354,0,0,1,0-2.707h5.753v-5.753a1.354,1.354,0,1,1,2.707,0v5.753h5.753a1.354,1.354,0,1,1,0,2.707Zm0,0" transform="translate(-113.629 -113.629)" fill="#fff"/>
</svg>
