<svg xmlns="http://www.w3.org/2000/svg" width="24.137" height="27.463" viewBox="0 0 24.137 27.463">
  <g id="bin_grid" transform="translate(-31)">
    <g id="Group_7193" data-name="Group 7193" transform="translate(32.674 8.046)">
      <g id="Group_7192" data-name="Group 7192" transform="translate(0)">
        <path id="Path_25659" data-name="Path 25659" d="M62.2,150l1.425,17.2a2.426,2.426,0,0,0,2.4,2.213H79.165a2.426,2.426,0,0,0,2.4-2.213L82.995,150Zm6.371,16.2a.8.8,0,0,1-.8-.754l-.8-12.981a.8.8,0,0,1,.753-.853.792.792,0,0,1,.853.753l.8,12.981A.8.8,0,0,1,68.576,166.2Zm4.828-.8a.8.8,0,1,1-1.609,0v-12.98a.8.8,0,1,1,1.609,0Zm4.826-12.93-.8,12.98a.8.8,0,0,1-1.606-.1l.8-12.981a.818.818,0,0,1,.853-.753A.8.8,0,0,1,78.23,152.464Z" transform="translate(-62.205 -150)" fill="#e53737"/>
      </g>
    </g>
    <g id="Group_7195" data-name="Group 7195" transform="translate(31)">
      <g id="Group_7194" data-name="Group 7194" transform="translate(0)">
        <path id="Path_25660" data-name="Path 25660" d="M53.528,3.218H48.7v-.8A2.416,2.416,0,0,0,46.287,0H39.85a2.416,2.416,0,0,0-2.414,2.414v.8H32.609a1.609,1.609,0,1,0,0,3.218H53.528a1.609,1.609,0,1,0,0-3.218Zm-6.437,0H39.046v-.8a.805.805,0,0,1,.8-.8h6.437a.805.805,0,0,1,.8.8Z" transform="translate(-31)" fill="#e53737"/>
      </g>
    </g>
  </g>
</svg>
