<svg width="20" height="22" viewBox="0 0 20 22" fill="none" xmlns="http://www.w3.org/2000/svg">
<path fill-rule="evenodd" clip-rule="evenodd" d="M10.3621 0C16.1756 0.518298 20.4696 5.68115 19.9597 11.5334H19.9547C19.9497 11.5485 19.9497 11.5787 19.9497 11.5787L18.615 11.4579C18.62 11.4428 18.62 11.4277 18.62 11.4126C19.0699 6.31016 15.3109 1.79643 10.2421 1.34355H10.2321L10.3521 0H10.3621ZM6.15346 9.48536C6.27843 10.4616 7.66808 12.419 7.66808 12.419V12.4341L8.12297 12.9977C8.12297 12.9977 9.73257 14.774 10.6573 15.1011C10.6573 15.1011 11.0472 15.398 11.5421 14.9954C11.6569 14.9021 11.7679 14.7922 11.8812 14.6801C12.2564 14.3087 12.6567 13.9125 13.3017 14.0091C14.1765 14.14 16.031 16.1025 16.031 16.1025C16.031 16.1025 18.2454 18.387 17.9805 19.011C17.7206 19.6349 14.7913 21.9094 13.2867 22.005C10.6423 20.8728 5.57361 15.0659 5.57361 15.0659L5.11872 14.4973C5.11872 14.4973 0.544864 8.28774 0 5.44465C0.409898 3.98033 3.23419 1.58005 3.89903 1.45425C4.55886 1.32342 6.31342 3.98536 6.31342 3.98536C6.31342 3.98536 7.63809 6.03339 7.77306 7.11025C7.85564 7.74889 7.34339 8.06117 6.87355 8.3476C6.71775 8.44257 6.56662 8.5347 6.44339 8.63495C5.94851 9.03751 6.15346 9.48536 6.15346 9.48536ZM9.69726 7.4172L9.81723 6.07365V6.07868C12.3066 6.30009 14.1512 8.51418 13.9312 11.0252V11.0503L12.5965 10.9296V10.9044C12.7515 9.13815 11.4518 7.57319 9.69726 7.4172ZM10.0822 3.05444L9.9622 4.39799C13.3613 4.70997 15.8857 7.73925 15.5858 11.1661V11.1862L16.9205 11.307V11.2868C17.2854 7.11528 14.2261 3.43184 10.0822 3.05444Z" fill="#CC0000"/>
</svg>
