<svg width="51" height="50" viewBox="0 0 51 50" fill="none" xmlns="http://www.w3.org/2000/svg">
<path d="M50.4375 25C50.4375 11.1929 39.2446 0 25.4375 0C11.6304 0 0.4375 11.1929 0.4375 25C0.4375 38.8071 11.6304 50 25.4375 50C39.2446 50 50.4375 38.8071 50.4375 25Z" fill="#F3BFBB"/>
<path d="M25.4937 50C30.0942 50 33.8372 46.257 33.8372 41.6561V20.8515C33.8372 16.2464 30.0942 12.5 25.4861 12.5C20.8848 12.5 17.1418 16.2464 17.1418 20.8515V41.6561C17.1418 46.257 20.8848 50 25.4937 50Z" fill="#294B67"/>
<path d="M18.7042 20.8515C18.7042 17.1082 21.7468 14.0625 25.4936 14.0625C29.2328 14.0625 32.2746 17.1082 32.2746 20.8515V41.6561C32.2746 45.3953 29.2328 48.4375 25.486 48.4375C21.7468 48.4375 18.7042 45.3953 18.7042 41.6561V20.8515Z" fill="white"/>
<path d="M21.6812 41.9922C21.6812 44.0922 23.3895 45.8008 25.4898 45.8008C27.5902 45.8008 29.2984 44.0922 29.2984 41.9922C29.2984 40.16 27.9976 38.6272 26.2711 38.2657V17.4805C26.2711 17.049 25.9217 16.6992 25.4898 16.6992C25.058 16.6992 24.7086 17.049 24.7086 17.4805V38.2657C22.9821 38.6272 21.6812 40.16 21.6812 41.9922Z" fill="#294B67"/>
<path d="M27.7359 41.9922C27.7359 43.2308 26.7281 44.2383 25.4898 44.2383C24.2516 44.2383 23.2437 43.2308 23.2437 41.9922C23.2437 40.7536 24.2516 39.7461 25.4898 39.7461C26.7281 39.7461 27.7359 40.7536 27.7359 41.9922Z" fill="#72B7CC"/>
<path d="M20.3774 22.4648H22.0086C22.4404 22.4648 22.7898 22.115 22.7898 21.6836C22.7898 21.2522 22.4404 20.9023 22.0086 20.9023H20.3774C19.9456 20.9023 19.5962 21.2522 19.5962 21.6836C19.5962 22.115 19.9456 22.4648 20.3774 22.4648Z" fill="#294B67"/>
<path d="M20.3774 26.0916H22.7898C23.2216 26.0916 23.5711 25.7417 23.5711 25.3103C23.5711 24.8789 23.2216 24.5291 22.7898 24.5291H20.3774C19.9456 24.5291 19.5962 24.8789 19.5962 25.3103C19.5962 25.7417 19.9456 26.0916 20.3774 26.0916Z" fill="#294B67"/>
<path d="M20.3774 29.7185H22.0086C22.4404 29.7185 22.7898 29.3687 22.7898 28.9373C22.7898 28.5058 22.4404 28.156 22.0086 28.156H20.3774C19.9456 28.156 19.5962 28.5058 19.5962 28.9373C19.5962 29.3687 19.9456 29.7185 20.3774 29.7185Z" fill="#294B67"/>
<path d="M20.3774 33.3452H22.7898C23.2216 33.3452 23.5711 32.9954 23.5711 32.564C23.5711 32.1325 23.2216 31.7827 22.7898 31.7827H20.3774C19.9456 31.7827 19.5962 32.1325 19.5962 32.564C19.5962 32.9954 19.9456 33.3452 20.3774 33.3452Z" fill="#294B67"/>
<path d="M22.7898 36.1909C22.7898 35.7595 22.4404 35.4097 22.0086 35.4097H20.3774C19.9456 35.4097 19.5962 35.7595 19.5962 36.1909C19.5962 36.6224 19.9456 36.9722 20.3774 36.9722H22.0086C22.4404 36.9722 22.7898 36.6224 22.7898 36.1909Z" fill="#294B67"/>
<path d="M28.9712 22.4648H30.6023C31.0341 22.4648 31.3836 22.115 31.3836 21.6836C31.3836 21.2522 31.0341 20.9023 30.6023 20.9023H28.9712C28.5393 20.9023 28.1899 21.2522 28.1899 21.6836C28.1899 22.115 28.5393 22.4648 28.9712 22.4648Z" fill="#294B67"/>
<path d="M28.1899 26.0916H30.6023C31.0341 26.0916 31.3836 25.7417 31.3836 25.3103C31.3836 24.8789 31.0341 24.5291 30.6023 24.5291H28.1899C27.7581 24.5291 27.4087 24.8789 27.4087 25.3103C27.4087 25.7417 27.7581 26.0916 28.1899 26.0916Z" fill="#294B67"/>
<path d="M30.6023 28.156H28.9712C28.5393 28.156 28.1899 28.5058 28.1899 28.9373C28.1899 29.3687 28.5393 29.7185 28.9712 29.7185H30.6023C31.0341 29.7185 31.3836 29.3687 31.3836 28.9373C31.3836 28.5058 31.0341 28.156 30.6023 28.156Z" fill="#294B67"/>
<path d="M28.1899 33.3452H30.6023C31.0341 33.3452 31.3836 32.9954 31.3836 32.564C31.3836 32.1325 31.0341 31.7827 30.6023 31.7827H28.1899C27.7581 31.7827 27.4087 32.1325 27.4087 32.564C27.4087 32.9954 27.7581 33.3452 28.1899 33.3452Z" fill="#294B67"/>
<path d="M30.6023 35.4097H28.9712C28.5393 35.4097 28.1899 35.7595 28.1899 36.1909C28.1899 36.6224 28.5393 36.9722 28.9712 36.9722H30.6023C31.0341 36.9722 31.3836 36.6224 31.3836 36.1909C31.3836 35.7595 31.0341 35.4097 30.6023 35.4097Z" fill="#294B67"/>
</svg>
