<svg width="72" height="71" viewBox="0 0 72 71" fill="none" xmlns="http://www.w3.org/2000/svg">
<path d="M60.4842 63.4219H40.6562V69.9967H60.4842V63.4219Z" stroke="#4C5776" stroke-width="2" stroke-linecap="round" stroke-linejoin="round"/>
<path d="M57.176 63.4274V60.1439L70.3947 43.7187V20.7188H65.4394L62.1383 40.4274L50.5667 47.0022L57.176 33.8605L50.5667 30.577L40.6562 45.3605V63.4274" stroke="#4C5776" stroke-width="2" stroke-linecap="round" stroke-linejoin="round"/>
<path d="M30.7381 63.4219H10.9102V69.9967H30.7381V63.4219Z" stroke="#4C5776" stroke-width="2" stroke-linecap="round" stroke-linejoin="round"/>
<path d="M14.2186 63.4274V60.1439L1 43.7187V20.7188H5.95524L9.2634 40.4274L20.828 47.0022L14.2186 33.8605L20.828 30.577L30.7384 45.3605V63.4274" stroke="#4C5776" stroke-width="2" stroke-linecap="round" stroke-linejoin="round"/>
<path d="M35.6995 33.8503C44.8231 33.8503 52.2193 26.4965 52.2193 17.4252C52.2193 8.3538 44.8231 1 35.6995 1C26.5758 1 19.1797 8.3538 19.1797 17.4252C19.1797 26.4965 26.5758 33.8503 35.6995 33.8503Z" stroke="#4C5776" stroke-width="2" stroke-linecap="round" stroke-linejoin="round"/>
<path d="M30.7383 24.0011H40.6558V17.4263H30.7383V10.8594H40.6558" stroke="#4C5776" stroke-width="2" stroke-linecap="round" stroke-linejoin="round"/>
<path d="M35.6992 10.8616V7.57812" stroke="#4C5776" stroke-width="2" stroke-linecap="round" stroke-linejoin="round"/>
<path d="M35.6992 24V27.2834" stroke="#4C5776" stroke-width="2" stroke-linecap="round" stroke-linejoin="round"/>
</svg>
