<svg width="86" height="86" viewBox="0 0 86 86" fill="none" xmlns="http://www.w3.org/2000/svg">
<path d="M37.5273 26.6016H44.9603" stroke="#4C5776" stroke-width="2" stroke-linecap="round" stroke-linejoin="round"/>
<path d="M55.2173 28.1484C60.5168 30.4823 64.4953 35.3109 65.7101 41.1615L77 44.96V55.9773L64.3055 60.2586C62.3618 64.3308 58.9832 67.582 54.8301 69.2881L53.3951 78.0118H46.1292L44.9144 70.6723H29.1905L27.9757 78.0118H20.7097L19.2748 69.2881C12.6693 66.5519 8 59.977 8 52.3075V44.9681C8 38.6506 11.1585 33.0817 15.9645 29.7741" stroke="#4C5776" stroke-width="2" stroke-linecap="round" stroke-linejoin="round"/>
<path d="M18.9102 37.625H37.0637" stroke="#4C5776" stroke-width="2" stroke-linecap="round" stroke-linejoin="round"/>
<path d="M55.2154 33.9526V19.2656C49.2022 19.2656 44.3203 24.1988 44.3203 30.2829V33.9526" stroke="#4C5776" stroke-width="2" stroke-linecap="round" stroke-linejoin="round"/>
<ellipse cx="55.217" cy="44.9728" rx="1.13886" ry="1.20715" fill="#4C5776"/>
<path d="M26.2513 33.318C32.4782 33.318 37.5261 27.6503 37.5261 20.659C37.5261 13.6676 32.4782 8 26.2513 8C20.0244 8 14.9766 13.6676 14.9766 20.659C14.9766 27.6503 20.0244 33.318 26.2513 33.318Z" stroke="#4C5776" stroke-width="2" stroke-linecap="round" stroke-linejoin="round"/>
<path d="M22.8711 25.7258H29.6359V20.6557H22.8711V15.5938H29.6359" stroke="#4C5776" stroke-width="2" stroke-linecap="round" stroke-linejoin="round"/>
<path d="M26.25 15.5975V13.0625" stroke="#4C5776" stroke-width="2" stroke-linecap="round" stroke-linejoin="round"/>
<path d="M26.25 25.7266V28.2535" stroke="#4C5776" stroke-width="2" stroke-linecap="round" stroke-linejoin="round"/>
</svg>
