<svg width="22" height="12" viewBox="0 0 22 12" fill="none" xmlns="http://www.w3.org/2000/svg">
<path d="M1.90866 10.9998C1.72117 10.9998 1.52743 10.9498 1.37119 10.8436C1.02121 10.6061 0.97121 10.1873 1.27119 9.90611L10.3707 1.23782C10.5332 1.08158 10.7707 1.00034 11.0082 1.00034C11.0207 1.00034 11.0269 1.00034 11.0394 1.00034C11.2894 0.994085 11.5394 1.07533 11.7081 1.23782L20.8076 9.90611C20.9389 10.0311 21.0014 10.1811 21.0014 10.3311C21.0014 10.5186 20.9014 10.7123 20.7014 10.8436C20.3514 11.081 19.8202 11.0435 19.5265 10.7623L11.0394 2.67525L2.54613 10.7623C2.38363 10.9186 2.14615 10.9998 1.90866 10.9998Z" fill="#050505" stroke="#050505" stroke-width="2" stroke-miterlimit="10"/>
</svg>
