<svg width="22" height="12" viewBox="0 0 22 12" fill="none" xmlns="http://www.w3.org/2000/svg">
<path d="M20.1656 1.0002C20.353 1.0002 20.5468 1.0502 20.703 1.15644C21.053 1.39393 21.103 1.81266 20.803 2.09389L11.7035 10.7622C11.541 10.9184 11.3035 10.9997 11.066 10.9997C11.0535 10.9997 11.0473 10.9997 11.0348 10.9997C10.7848 11.0059 10.5348 10.9247 10.3661 10.7622L1.26657 2.09389C1.13533 1.9689 1.07283 1.8189 1.07283 1.66891C1.07283 1.48142 1.17282 1.28768 1.37281 1.15644C1.72279 0.918952 2.25402 0.956449 2.54775 1.23768L11.0348 9.32475L19.5281 1.23769C19.6906 1.08144 19.9281 1.0002 20.1656 1.0002Z" fill="#050505" stroke="#050505" stroke-width="2" stroke-miterlimit="10"/>
</svg>
