<svg width="86" height="86" viewBox="0 0 86 86" fill="none" xmlns="http://www.w3.org/2000/svg">
<path d="M70.5297 58.8119V19.2983C70.5297 18.7493 70.1662 18.2969 69.7137 18.2969H16.2847C15.8322 18.2969 15.4688 18.7419 15.4688 19.2983V58.8119C15.4688 59.3608 15.8322 59.8132 16.2847 59.8132H69.7137C70.1662 59.8132 70.5297 59.3682 70.5297 58.8119ZM68.9052 57.8105H17.1006V20.2922H68.9052V57.8105Z" fill="#4C5776"/>
<path d="M77.2063 62.5462C76.6945 61.9157 76.0121 61.5671 75.2852 61.5671H73.5272V15.5483C73.5272 14.9993 73.1637 14.5469 72.7112 14.5469H13.2888C12.8363 14.5469 12.4728 14.9919 12.4728 15.5483V61.5671H10.7148C9.22391 61.5671 8 63.0581 8 64.8902C8 66.7372 8.58599 68.4803 9.64671 69.7932C10.7074 71.0987 12.1242 71.8183 13.6225 71.8183H72.3775C75.478 71.8183 78 68.7177 78 64.905C78 64.0149 77.7181 63.1767 77.2063 62.5462ZM14.1047 16.5496H71.8953V61.5671H49.2048C48.3073 61.5671 47.5804 62.4646 47.5804 63.5699H38.427C38.427 62.4646 37.7001 61.5671 36.8026 61.5671H14.1047V16.5496ZM72.3775 69.8229H13.63C12.5618 69.8229 11.5605 69.3111 10.8039 68.3839C10.0473 67.4567 9.63187 66.218 9.63187 64.905C9.63187 64.1707 10.1214 63.5773 10.7223 63.5773H36.7952C36.7952 64.6825 37.5221 65.58 38.4196 65.58H47.5804C48.4779 65.58 49.2048 64.6825 49.2048 63.5773H75.2852C75.5744 63.5773 75.8489 63.7182 76.0566 63.9704C76.2643 64.2226 76.3755 64.5564 76.3755 64.9125C76.3755 67.6199 74.5805 69.8303 72.3775 69.8303V69.8229Z" fill="#4C5776"/>
<path d="M39.7607 44.3499C40.0796 44.6244 40.5321 44.7876 41.0143 44.7876C41.489 44.7876 41.9489 44.6318 42.2678 44.3573L55.078 33.3644C55.7011 32.8304 55.6418 32.0144 54.9519 31.5323C54.2621 31.0576 53.194 31.1021 52.5783 31.6287L41.0291 41.5461L36.8456 37.9188C36.2299 37.3848 35.1618 37.3329 34.4719 37.8076C33.7747 38.2823 33.7153 39.1057 34.331 39.6397L39.7681 44.3499H39.7607Z" fill="#4C5776"/>
</svg>
