<svg xmlns="http://www.w3.org/2000/svg" width="13.66" height="13.66" viewBox="0 0 13.66 13.66">
  <g id="equalizer" transform="translate(0 0)">
    <g id="Group_3960" data-name="Group 3960" transform="translate(0 5.219)">
      <g id="Group_3959" data-name="Group 3959">
        <path id="Path_11602" data-name="Path 11602" d="M13.172,171.875H5.3a2,2,0,0,0-2.361-1.158,1.805,1.805,0,0,0-1.4,1.158H.488a.41.41,0,1,0,0,.805H1.533a2,2,0,0,0,2.361,1.158,1.805,1.805,0,0,0,1.4-1.158h7.875a.41.41,0,1,0,0-.805Zm-9.757,1.208a.82.82,0,1,1,0-1.611.82.82,0,1,1,0,1.611Z" transform="translate(0 -170.667)" fill="#562fd6"/>
      </g>
    </g>
    <g id="Group_3962" data-name="Group 3962" transform="translate(0 0)">
      <g id="Group_3961" data-name="Group 3961" transform="translate(0 0)">
        <path id="Path_11603" data-name="Path 11603" d="M13.172,1.208H11.639A2,2,0,0,0,9.278.05a1.805,1.805,0,0,0-1.4,1.158H.488A.451.451,0,0,0,0,1.61a.451.451,0,0,0,.488.4H7.875a2,2,0,0,0,2.361,1.158,1.805,1.805,0,0,0,1.4-1.158h1.533a.451.451,0,0,0,.488-.4A.451.451,0,0,0,13.172,1.208ZM9.757,2.416a.9.9,0,0,1-.976-.805A.9.9,0,0,1,9.757.805a.9.9,0,0,1,.976.805A.9.9,0,0,1,9.757,2.416Z" transform="translate(0 0)" fill="#562fd6"/>
      </g>
    </g>
    <g id="Group_3964" data-name="Group 3964" transform="translate(0 10.438)">
      <g id="Group_3963" data-name="Group 3963">
        <path id="Path_11604" data-name="Path 11604" d="M13.172,342.542H10.664A2,2,0,0,0,8.3,341.384a1.805,1.805,0,0,0-1.4,1.158H.488a.41.41,0,1,0,0,.805H6.9a2,2,0,0,0,2.361,1.158,1.805,1.805,0,0,0,1.4-1.158h2.509a.41.41,0,1,0,0-.805ZM8.781,343.75a.82.82,0,1,1,0-1.611.82.82,0,1,1,0,1.611Z" transform="translate(0 -341.334)" fill="#562fd6"/>
      </g>
    </g>
  </g>
</svg>
