<svg width="17" height="23" viewBox="0 0 17 23" fill="none" xmlns="http://www.w3.org/2000/svg">
<path fill-rule="evenodd" clip-rule="evenodd" d="M10.0372 3.268C9.93672 3.268 9.90156 3.19858 9.95682 3.11923C9.95682 3.11923 10.3989 2.45472 10.3989 1.93898C10.3989 0.86783 9.51976 0 8.43465 0C7.34955 0 6.47041 0.86783 6.47041 1.93898C6.47041 2.45472 6.91249 3.11923 6.91249 3.11923C6.96775 3.19858 6.92756 3.268 6.83211 3.268H4.03394C3.93347 3.268 3.85309 3.34735 3.85309 3.44653V5.20202C3.85309 5.3012 3.93347 5.38055 4.03394 5.38055H12.976C13.0765 5.38055 13.1569 5.3012 13.1569 5.20202V3.44653C13.1569 3.34735 13.0765 3.268 12.976 3.268H10.0372ZM8.43465 0.71906C9.11787 0.71906 9.67549 1.26951 9.67549 1.94394C9.67549 2.61837 9.12289 3.16882 8.43465 3.16882C7.74641 3.16882 7.19381 2.62333 7.19381 1.94394C7.19381 1.26455 7.75144 0.71906 8.43465 0.71906Z" fill="#CC0000"/>
<path d="M14.5384 3.3672H13.7748V5.16237H14.021C14.9252 5.16237 15.307 5.89134 15.307 6.78893V19.3997C15.307 20.2924 14.9252 21.0263 14.021 21.0263H2.98404C2.07979 21.0263 1.69799 20.2973 1.69799 19.3997V6.78893C1.69799 5.8963 2.07979 5.16237 2.98404 5.16237H3.29048V3.3672H2.46661C1.11022 3.3672 0 4.46314 0 5.80704V20.5651C0 21.9041 1.11022 23 2.46661 23H14.5334C15.8898 23 17 21.9041 17 20.5651V5.80208C17 4.46314 15.8898 3.36224 14.5334 3.36224L14.5384 3.3672Z" fill="#CC0000"/>
<path d="M8.10204 15.4015V15.4532H9.32653V15.4015C9.33333 15.0459 9.37755 14.749 9.45918 14.511C9.54082 14.2729 9.67177 14.0679 9.85204 13.8958C10.0323 13.7208 10.2721 13.5545 10.5714 13.3967C10.8707 13.2419 11.1259 13.0641 11.3367 12.8633C11.551 12.6625 11.7143 12.4345 11.8265 12.1793C11.9422 11.924 12 11.6386 12 11.3231C12 10.8757 11.8776 10.4771 11.6327 10.1272C11.3912 9.77725 11.0476 9.50191 10.602 9.30115C10.1599 9.10038 9.63946 9 9.04082 9C8.4898 9 7.98809 9.09178 7.53571 9.27533C7.08673 9.45889 6.72449 9.72419 6.44898 10.0712C6.17687 10.4183 6.02721 10.8356 6 11.3231H7.28571C7.31293 10.9847 7.41327 10.7108 7.58674 10.5014C7.7602 10.2921 7.97619 10.1386 8.23469 10.0411C8.4932 9.94359 8.76191 9.89484 9.04082 9.89484C9.36055 9.89484 9.65136 9.95076 9.91327 10.0626C10.1752 10.1745 10.3844 10.3337 10.5408 10.5402C10.6973 10.7467 10.7755 10.9904 10.7755 11.2715C10.7755 11.4981 10.7279 11.7046 10.6327 11.891C10.5408 12.0774 10.415 12.2424 10.2551 12.3858C10.0952 12.5263 9.91497 12.6482 9.71429 12.7514C9.38095 12.9207 9.09524 13.1056 8.85714 13.3064C8.61905 13.5072 8.43537 13.7696 8.30612 14.0937C8.17687 14.4178 8.10884 14.8537 8.10204 15.4015Z" fill="#CC0000"/>
<path d="M8.10714 17.772C8.28741 17.924 8.5034 18 8.7551 18C8.92517 18 9.07823 17.9656 9.21429 17.8968C9.35374 17.8251 9.46429 17.7304 9.54592 17.6128C9.63095 17.4952 9.67347 17.3662 9.67347 17.2256C9.67347 17.0134 9.58333 16.8313 9.40306 16.6793C9.22279 16.5272 9.0068 16.4512 8.7551 16.4512C8.5034 16.4512 8.28741 16.5272 8.10714 16.6793C7.92687 16.8313 7.83674 17.0134 7.83674 17.2256C7.83674 17.4379 7.92687 17.62 8.10714 17.772Z" fill="#CC0000"/>
</svg>
