<svg width="86" height="86" viewBox="0 0 86 86" fill="none" xmlns="http://www.w3.org/2000/svg">
<path d="M77.6171 9.31211C77.5651 8.83212 77.1836 8.45989 76.6982 8.41091C68.9223 7.5489 61.1724 8.18561 53.6653 10.3211C46.0628 12.4761 39.0931 16.0711 32.9382 20.9885C31.4039 21.1844 29.8695 21.4587 28.3871 21.8015C21.1921 23.4766 15.0286 26.7581 10.0527 31.558C9.74063 31.8616 9.65394 32.322 9.82731 32.7139L15.228 44.6057C14.9506 45.2914 14.6732 45.9967 14.4131 46.702C14.2744 47.0742 14.3697 47.4955 14.6558 47.7697L17.3345 50.4145L12.4453 55.2438C12.0378 55.6454 12.0378 56.2919 12.4453 56.6935L16.5629 60.7587L8.57901 68.6442C8.17158 69.0458 8.17158 69.6923 8.57901 70.094C8.77839 70.2899 9.04713 70.3976 9.31586 70.3976C9.58459 70.3976 9.84465 70.2997 10.0527 70.094L18.0453 62.2085L19.9351 64.0794L13.4422 70.4956C13.0348 70.8972 13.0348 71.5437 13.4422 71.9453C13.6416 72.1412 13.9103 72.249 14.179 72.249C14.4478 72.249 14.7078 72.151 14.9159 71.9453L21.4088 65.5292L23.2986 67.4002L15.306 75.2856C14.8985 75.6873 14.8985 76.3338 15.306 76.7354C15.5054 76.9313 15.7741 77.0391 16.0428 77.0391C16.3116 77.0391 16.5716 76.9411 16.7797 76.7354L24.7723 68.8499L28.7426 72.7682C28.9333 72.9641 29.202 73.0718 29.4794 73.0718C29.7568 73.0718 30.0169 72.9641 30.2163 72.7682L35.1054 67.9389L37.7841 70.5837C37.9835 70.7797 38.2435 70.8874 38.5209 70.8874C38.6423 70.8874 38.755 70.8678 38.8677 70.8286C39.5872 70.5739 40.2894 70.3095 40.9915 70.0254L53.0324 75.3542C53.1711 75.413 53.3098 75.4424 53.4572 75.4424C53.7346 75.4424 54.0033 75.3346 54.2027 75.1289C59.0572 70.2213 62.3774 64.1284 64.0765 57.0266C64.4319 55.5573 64.7006 54.0487 64.9 52.5206C66.8158 50.1795 68.5582 47.7012 70.0752 45.1053C71.2282 43.1462 72.2771 41.0793 73.196 38.9733C77.2443 29.6772 78.7787 19.4212 77.6257 9.32191L77.6171 9.31211ZM28.8726 23.79C29.2107 23.7117 29.5574 23.6333 29.9042 23.5647C29.3494 24.0741 28.8032 24.5933 28.2744 25.1125C23.2639 30.0592 19.2589 35.7309 16.3462 42.0099L12.0378 32.5179C16.641 28.2568 22.3017 25.3182 28.8726 23.7802V23.79ZM33.6231 66.4696L29.4621 70.5739L18.7735 60.0143L14.6558 55.9491L18.8168 51.8447L33.6231 66.4696ZM62.0393 56.5368C60.4876 63.0215 57.5142 68.6148 53.1972 73.16L43.5835 68.8989C49.9377 66.019 55.6938 62.0713 60.6956 57.1246C61.2331 56.5956 61.7532 56.0568 62.2647 55.5181C62.1953 55.8609 62.1173 56.2038 62.0306 56.5368H62.0393ZM71.2802 38.1504C70.396 40.1781 69.3817 42.1666 68.2721 44.067C65.8015 48.2889 62.7588 52.1876 59.2306 55.6748C53.3619 61.464 46.4875 65.8329 38.781 68.654L16.6236 46.7706C16.8577 46.1535 17.0917 45.5461 17.3431 44.9486C20.2038 38.0623 24.3822 31.8812 29.7655 26.572C31.1265 25.23 32.5568 23.9468 34.0305 22.7615C45.5773 13.4165 60.7043 8.92028 75.6406 10.3602C76.5855 19.8424 75.0771 29.4421 71.2802 38.1602V38.1504Z" fill="#4C5776"/>
<path d="M55.1835 19.1562C52.0974 19.1562 49.1934 20.3415 47.0175 22.4966C44.833 24.6516 43.6367 27.5119 43.6367 30.5584C43.6367 33.6048 44.8417 36.4749 47.0175 38.6202C49.2021 40.7752 52.0974 41.9605 55.1835 41.9605C58.2696 41.9605 61.1736 40.7752 63.3495 38.6202C65.534 36.4651 66.7303 33.6048 66.7303 30.5584C66.7303 27.5119 65.5254 24.6516 63.3495 22.4966C61.165 20.3415 58.2696 19.1562 55.1835 19.1562ZM61.8845 37.1802C60.0987 38.9434 57.7148 39.923 55.1835 39.923C52.6522 39.923 50.277 38.9532 48.4826 37.1802C46.6968 35.417 45.7086 33.066 45.7086 30.5682C45.7086 28.0703 46.6968 25.7193 48.4826 23.9561C50.2683 22.1929 52.6522 21.2133 55.1835 21.2133C57.7148 21.2133 60.09 22.1831 61.8845 23.9561C63.6702 25.7193 64.6585 28.0703 64.6585 30.5682C64.6585 33.066 63.6702 35.417 61.8845 37.1802Z" fill="#4C5776"/>
<path d="M48.4361 19.0397C48.5921 19.0397 48.7568 19.0006 48.9042 18.9222C50.1958 18.2757 51.5482 17.688 52.9352 17.1786C53.4726 16.9827 53.75 16.3949 53.5507 15.866C53.3513 15.337 52.7531 15.0627 52.2157 15.2586C50.7593 15.7876 49.329 16.4145 47.9593 17.1002C47.4478 17.3549 47.2485 17.972 47.5085 18.4814C47.6906 18.834 48.0547 19.0397 48.4361 19.0397Z" fill="#4C5776"/>
<path d="M71.9554 12.8941C71.6606 12.8451 64.5696 11.797 55.8228 14.1283C55.268 14.2753 54.9386 14.8336 55.0859 15.3822C55.2073 15.8426 55.6321 16.1462 56.0915 16.1462C56.1782 16.1462 56.2736 16.1364 56.3602 16.1071C64.6389 13.9128 71.5306 14.9022 71.6346 14.9218C72.1981 15.0099 72.7355 14.6279 72.8222 14.0696C72.9089 13.5112 72.5188 12.9822 71.9554 12.9039V12.8941Z" fill="#4C5776"/>
</svg>
