<svg width="24" height="22" viewBox="0 0 24 22" fill="none" xmlns="http://www.w3.org/2000/svg">
<path d="M19.7238 5.76422V0.537643C19.7238 0.374642 19.5917 0.243188 19.4279 0.243188H16.8751C16.7113 0.243188 16.5792 0.374642 16.5792 0.537643V3.37703L12.2348 0.0749283C12.1026 -0.0249761 11.8965 -0.0249761 11.7644 0.0749283L0.115833 8.92436C-0.0162963 9.02426 -0.037437 9.20829 0.0629814 9.33449L1.61154 11.3536C1.71196 11.4798 1.89694 11.5061 2.02378 11.4115L3.09139 10.6017V21.7121C3.09139 21.8751 3.22352 22.0066 3.38736 22.0066H20.617C20.7809 22.0066 20.913 21.8751 20.913 21.7121V10.6017L21.9806 11.4115C22.1075 11.5114 22.2924 11.4851 22.3929 11.3536L23.9414 9.33975C24.0418 9.21355 24.0154 9.02952 23.8886 8.92961L19.7291 5.76948L19.7238 5.76422ZM19.1636 20.2661H15.1416V13.6724H8.86281V20.2661H4.84078V9.48698L12.0022 4.05007L19.1636 9.48698V20.2661Z" fill="#CC0000"/>
</svg>
