<svg width="86" height="86" viewBox="0 0 86 86" fill="none" xmlns="http://www.w3.org/2000/svg">
<path fill-rule="evenodd" clip-rule="evenodd" d="M15.3837 29.6411C12.5404 29.7157 10.0852 32.3126 10.0852 35.7426V39.3692C10.0852 42.8487 12.6207 45.4724 15.5094 45.4724H24.2165V29.6479H15.5094C15.4669 29.6479 15.425 29.6456 15.3837 29.6411ZM15.6494 27.3479C15.6035 27.3423 15.5568 27.3395 15.5094 27.3395C11.1345 27.3395 7.78516 31.2109 7.78516 35.7426V39.3692C7.78516 43.902 11.1438 47.7724 15.5094 47.7724H25.3665C26.0016 47.7724 26.5165 47.2575 26.5165 46.6224V28.4979C26.5165 27.8628 26.0016 27.3479 25.3665 27.3479H15.6494Z" fill="#4C5776"/>
<path fill-rule="evenodd" clip-rule="evenodd" d="M58.8944 16.6944C59.1937 16.9106 59.3709 17.2574 59.3709 17.6266V57.4937C59.3709 57.8629 59.1937 58.2096 58.8944 58.4258C58.5951 58.6421 58.2102 58.7014 57.8597 58.5854L25.0054 47.7141C24.4024 47.5146 24.0753 46.8641 24.2748 46.2611C24.4744 45.6581 25.1249 45.331 25.7279 45.5306L57.0709 55.9018V19.2184L25.7279 29.5897C25.1249 29.7892 24.4744 29.4621 24.2748 28.8591C24.0753 28.2562 24.4024 27.6056 25.0054 27.4061L57.8597 16.5348C58.2102 16.4188 58.5951 16.4782 58.8944 16.6944Z" fill="#4C5776"/>
<path fill-rule="evenodd" clip-rule="evenodd" d="M57.0708 14C57.0708 13.3648 57.5857 12.85 58.2208 12.85H64.7866C65.4218 12.85 65.9366 13.3648 65.9366 14V61.1202C65.9366 61.7553 65.4218 62.2702 64.7866 62.2702H58.2208C57.5857 62.2702 57.0708 61.7553 57.0708 61.1202V57.4936C57.0708 56.8585 57.5857 56.3436 58.2208 56.3436C58.8559 56.3436 59.3708 56.8585 59.3708 57.4936V59.9702H63.6366V15.15H59.3708V17.6266C59.3708 18.2617 58.8559 18.7766 58.2208 18.7766C57.5857 18.7766 57.0708 18.2617 57.0708 17.6266V14Z" fill="#4C5776"/>
<path fill-rule="evenodd" clip-rule="evenodd" d="M25.6549 45.5091C26.2698 45.6684 26.6391 46.2959 26.4798 46.9108L19.9056 72.2884C19.7741 72.7957 19.3164 73.15 18.7923 73.15H8.93517C8.57932 73.15 8.24352 72.9853 8.02573 72.7039C7.80793 72.4225 7.73268 72.0561 7.82192 71.7116L14.3961 46.334C14.5554 45.7192 15.183 45.3499 15.7978 45.5091C16.4126 45.6684 16.7819 46.2959 16.6226 46.9108L10.421 70.85H17.9023L24.2533 46.334C24.4126 45.7192 25.0401 45.3499 25.6549 45.5091Z" fill="#4C5776"/>
<path fill-rule="evenodd" clip-rule="evenodd" d="M70.2109 37.5644C70.2109 36.9293 70.7258 36.4144 71.3609 36.4144H77.9352C78.5703 36.4144 79.0852 36.9293 79.0852 37.5644C79.0852 38.1996 78.5703 38.7144 77.9352 38.7144H71.3609C70.7258 38.7144 70.2109 38.1996 70.2109 37.5644Z" fill="#4C5776"/>
<path fill-rule="evenodd" clip-rule="evenodd" d="M78.708 18.5882C79.1783 19.015 79.2136 19.7423 78.7868 20.2126L72.2126 27.4573C71.7858 27.9277 71.0585 27.963 70.5881 27.5362C70.1178 27.1093 70.0825 26.3821 70.5093 25.9117L77.0835 18.667C77.5104 18.1967 78.2376 18.1614 78.708 18.5882Z" fill="#4C5776"/>
<path fill-rule="evenodd" clip-rule="evenodd" d="M70.5886 47.5836C71.0592 47.157 71.7865 47.1928 72.213 47.6633L78.7872 54.9165C79.2138 55.3871 79.1781 56.1143 78.7075 56.5409C78.2369 56.9674 77.5096 56.9317 77.0831 56.4611L70.5089 49.208C70.0823 48.7374 70.118 48.0101 70.5886 47.5836Z" fill="#4C5776"/>
</svg>
