<svg width="86" height="86" viewBox="0 0 86 86" fill="none" xmlns="http://www.w3.org/2000/svg">
<path d="M75.9699 48.7397C75.7068 49.9763 75.5264 51.2441 75.1655 52.4497C74.346 55.1719 72.8575 57.443 70.8652 59.3329C69.6773 60.4607 68.497 61.6118 67.2941 62.724C66.9633 63.0351 66.8205 63.3385 66.8205 63.8207C66.8355 68.0362 66.828 72.2517 66.828 76.4673C66.828 76.6928 66.8506 76.9339 66.7904 77.1439C66.6476 77.6884 66.3018 78.0072 65.7755 77.9839C65.2492 77.9606 64.9184 77.6184 64.8207 77.0661C64.7831 76.8717 64.7981 76.6539 64.7981 76.4517C64.7981 72.0106 64.8057 67.5695 64.7906 63.1207C64.7906 62.4751 64.9711 62.0085 65.4297 61.5807C66.9333 60.1807 68.4294 58.7729 69.8803 57.3107C72.5342 54.643 73.895 51.3219 73.925 47.4097C73.9551 42.3542 73.9401 37.2909 73.9325 32.2354C73.9325 30.5554 72.865 29.3343 71.4215 29.3265C69.9555 29.3187 68.8654 30.5476 68.8579 32.2509C68.8579 35.3231 68.8579 38.4031 68.8579 41.4753C68.8579 42.5953 68.6023 42.8908 67.5949 43.0075C65.7229 43.2331 63.9561 43.8164 62.3548 44.8975C62.1368 45.0453 61.9112 45.2708 61.821 45.5197C59.9866 50.6375 57.002 54.8763 53.0851 58.2985C50.7395 60.344 48.2134 62.1485 45.77 64.054C45.7024 64.1085 45.6347 64.1785 45.552 64.194C44.5371 64.4507 44.4694 65.2129 44.4845 66.1773C44.5296 69.6384 44.507 73.1073 44.4845 76.5684C44.4845 76.9261 44.3942 77.385 44.1762 77.6184C43.9657 77.8439 43.4921 77.9917 43.2214 77.8984C42.9207 77.7895 42.6877 77.385 42.4997 77.0584C42.402 76.895 42.4621 76.615 42.4621 76.3895C42.4621 72.6951 42.4621 69.0084 42.4696 65.314C42.4696 64.894 42.3343 64.7307 41.996 64.5051C40.5225 63.5329 39.064 62.5218 37.6506 61.4485C33.9893 58.6641 30.6212 55.5296 28.0801 51.4852C26.9148 49.6341 25.8924 47.6975 25.1707 45.5975C25.0805 45.3253 24.8474 45.0686 24.6219 44.9131C22.9829 43.7931 21.1786 43.2097 19.2615 43.0075C18.412 42.9142 18.1037 42.5642 18.1037 41.6464C18.1037 38.4575 18.1037 35.2687 18.0962 32.0798C18.0962 30.6409 17.1038 29.4821 15.8182 29.3421C14.5327 29.1943 13.3448 30.1432 13.0817 31.5354C13.0291 31.7998 13.0291 32.0798 13.0291 32.352C13.0291 37.322 13.014 42.2842 13.0291 47.2541C13.0441 51.3997 14.5101 54.8608 17.382 57.6218C18.7728 58.9518 20.1561 60.2974 21.562 61.6118C21.9755 62.0007 22.171 62.4285 22.171 63.0274C22.1559 67.5618 22.171 72.0962 22.1635 76.6306C22.1635 77.4084 21.8853 77.8595 21.344 77.9761C20.6749 78.1239 20.1411 77.5717 20.1411 76.7006C20.1411 73.4884 20.1411 70.2762 20.1411 67.064C20.1411 65.944 20.1712 64.8318 20.1261 63.7118C20.111 63.4007 19.9456 63.0196 19.7351 62.8096C18.3669 61.4485 16.9309 60.1652 15.5852 58.7885C12.5554 55.6774 11.0368 51.8274 11.0142 47.3241C10.9917 42.3153 10.9992 37.2987 11.0142 32.2898C11.0142 28.3154 14.4876 26.0132 17.803 27.771C17.8782 27.8098 17.9534 27.841 18.0887 27.8954C18.1037 27.631 18.1188 27.421 18.1188 27.2032C18.1188 24.3099 18.2466 21.4088 18.0887 18.5233C17.8932 15.0388 20.8253 12.3555 24.2084 14.02C24.2084 13.5377 24.2084 13.1022 24.2084 12.6589C24.2084 10.2711 25.321 8.73888 27.4787 8.10889C27.5388 8.09333 27.584 8.03889 27.6366 8H28.9071C29.08 8.07 29.253 8.14 29.4259 8.20222C30.8393 8.69999 31.7414 9.72665 32.1699 11.2511C32.2226 11.4378 32.2602 11.6322 32.3128 11.8266C35.4177 10.2089 38.6054 12.4955 38.47 16.1977C40.3571 15.2255 42.0411 15.5677 43.5222 17.131C44.1988 16.3455 44.9731 15.7777 45.9054 15.7311C46.785 15.6922 47.6721 15.8944 48.5367 15.9877C48.3337 12.8844 51.2206 10.1155 54.6188 11.7722C54.8744 11.1578 55.0774 10.5122 55.3931 9.93665C55.972 8.88666 56.9418 8.38111 57.9718 8H59.4979C59.5656 8.03889 59.6333 8.10111 59.7085 8.12444C61.7082 8.76999 62.7833 10.3178 62.7984 12.5655C62.7984 13.0322 62.7984 13.4988 62.7984 13.9655C62.9036 13.9655 62.9562 13.9811 62.9863 13.9655C65.6327 12.4411 69.0383 14.5411 68.9105 18.2588C68.8128 21.2377 68.888 24.2243 68.8955 27.211C68.8955 27.421 68.918 27.6387 68.9331 27.8954C69.1135 27.8021 69.2187 27.7476 69.3315 27.6854C71.9854 26.2776 75.0527 27.7398 75.8496 30.8043C75.8872 30.952 75.9474 31.092 76 31.2398V48.7397H75.9699ZM60.776 40.0442C60.7234 39.4298 60.6858 38.8231 60.6106 38.2087C60.1445 34.6387 58.4905 32.072 55.2352 30.8898C51.6642 29.5987 47.6571 30.8898 45.6723 34.0242C45.1836 34.802 44.8904 35.7276 44.5521 36.6064C44.3416 37.1509 44.071 37.5942 43.4695 37.5864C42.9057 37.5787 42.635 37.1587 42.4396 36.6298C42.1388 35.8287 41.8832 34.9887 41.4547 34.2731C39.6278 31.2165 36.0492 29.7621 32.621 30.6254C30.0348 31.2787 28.035 32.772 27.0427 35.4787C26.0954 38.0609 25.9225 40.7598 26.6668 43.4508C27.7493 47.3708 29.7642 50.7075 32.3203 53.6863C35.2824 57.1474 38.861 59.784 42.4922 62.3351C43.2064 62.8407 43.9432 62.7551 44.6273 62.234C46.364 60.9352 48.1232 59.6752 49.8223 58.3218C53.7166 55.2185 56.9418 51.4852 59.1145 46.7641C60.0919 44.6408 60.761 42.432 60.776 40.0209V40.0442ZM66.8055 40.7831C66.8055 40.7831 66.828 40.682 66.828 40.5964C66.828 33.0131 66.828 25.4376 66.828 17.8544C66.828 16.5866 65.9033 15.6377 64.7681 15.6611C63.6404 15.6844 62.7833 16.641 62.7833 17.9399C62.7758 22.7621 62.7833 27.5921 62.7833 32.4143C62.7833 32.5465 62.7984 32.6865 62.8059 32.842C63.1818 32.9509 63.5502 33.0365 63.911 33.1531C64.5876 33.3709 64.9109 33.9076 64.753 34.5142C64.5876 35.1442 64.0764 35.432 63.3998 35.2687C62.9412 35.152 62.4751 35.0431 61.9338 34.9109C62.7006 37.3453 62.9412 39.7253 62.648 42.1286C64.0539 41.6775 65.3846 41.2497 66.813 40.7909L66.8055 40.7831ZM24.1708 32.842C24.1783 32.6865 24.1933 32.5543 24.1933 32.4143C24.1933 27.5921 24.1933 22.7621 24.1933 17.9399C24.1933 17.7377 24.1783 17.5277 24.1332 17.3333C23.8776 16.2444 22.9002 15.5288 21.8853 15.6766C20.8478 15.8322 20.1411 16.7577 20.1411 17.9944C20.1411 25.4376 20.1411 32.8809 20.1411 40.3242C20.1411 40.5186 20.1637 40.7131 20.1712 40.7831C21.6071 41.2497 22.9529 41.6775 24.3362 42.1286C23.9979 39.6942 24.2986 37.3142 25.0429 34.8798C24.464 35.0276 23.9979 35.1598 23.5317 35.2687C22.9077 35.4242 22.404 35.1209 22.2386 34.5142C22.0808 33.9309 22.3815 33.3709 23.0055 33.1609C23.3814 33.0365 23.7723 32.9431 24.1708 32.8265V32.842ZM30.2904 29.1554C30.2904 26.9854 30.2904 24.8232 30.2904 22.661C30.2904 19.2932 30.2904 15.9177 30.2904 12.55C30.2904 11.6011 29.9446 10.8622 29.1552 10.4344C27.7569 9.67999 26.2382 10.7611 26.2382 12.5266C26.2307 19.0366 26.2382 25.5543 26.2382 32.0643C26.2382 32.1654 26.2533 32.2665 26.2758 32.5154C27.381 30.9365 28.7041 29.8787 30.298 29.1554H30.2904ZM60.7459 32.352C60.7459 32.2043 60.7459 32.0487 60.7459 31.9009C60.7459 25.4532 60.7459 19.0132 60.7459 12.5655C60.7459 11.1733 59.8964 10.1933 58.7161 10.1933C57.5357 10.1933 56.6937 11.1733 56.6937 12.5655C56.6937 14.3155 56.6937 16.0733 56.6937 17.8233C56.6937 21.401 56.6937 24.971 56.7088 28.5487C56.7088 28.7898 56.8291 29.1632 56.9944 29.2565C58.4154 30.0187 59.6483 31.022 60.7535 32.352H60.7459ZM54.6338 28.3232C54.6338 28.2843 54.6488 28.191 54.6488 28.1054C54.6488 23.9832 54.6488 19.861 54.6488 15.7311C54.6488 15.5288 54.6263 15.3188 54.5812 15.1244C54.318 14.0511 53.3783 13.3588 52.3784 13.4911C51.3559 13.6233 50.5966 14.5333 50.5966 15.6999C50.5891 19.7521 50.5966 23.8121 50.5966 27.8643C50.5966 28.0198 50.6192 28.1754 50.6267 28.3154H54.6338V28.3232ZM36.35 28.3232C36.3575 28.1832 36.38 28.0276 36.38 27.8721C36.38 23.8588 36.38 19.8532 36.38 15.8399C36.38 14.4633 35.5079 13.4677 34.3351 13.4833C33.1548 13.4911 32.3278 14.4711 32.3278 15.8788C32.3278 19.8844 32.3278 23.8977 32.3278 27.911C32.3278 28.0821 32.3579 28.2532 32.3654 28.331H36.3575L36.35 28.3232ZM44.507 32.0487C45.6573 30.6798 46.8827 29.7387 48.2961 29.0854C48.4389 29.0232 48.5517 28.7043 48.5517 28.5021C48.5667 25.7254 48.5667 22.9566 48.5592 20.1799C48.5592 18.8421 47.7022 17.8699 46.5519 17.8544C45.3716 17.8388 44.507 18.8188 44.4995 20.1955C44.492 22.0154 44.4995 23.8354 44.4995 25.6554C44.4995 27.7165 44.4995 29.7854 44.4995 32.0487H44.507ZM42.4771 32.0176C42.4771 31.6054 42.4771 31.3876 42.4771 31.1698C42.4771 27.9187 42.4771 24.6677 42.4771 21.4088C42.4771 20.911 42.4922 20.4055 42.4621 19.9077C42.3869 18.7177 41.4848 17.831 40.4022 17.8544C39.3421 17.8777 38.44 18.7799 38.4325 19.931C38.4024 22.8166 38.4174 25.7099 38.4325 28.5954C38.4325 28.7665 38.5753 29.031 38.7181 29.0932C40.1165 29.7387 41.3269 30.672 42.4771 32.0098V32.0176Z" fill="#4C5776"/>
</svg>
