<svg width="86" height="86" viewBox="0 0 86 86" fill="none" xmlns="http://www.w3.org/2000/svg">
<path d="M46.2468 8.29785C31.5016 8.29785 19.5009 20.2499 19.5009 34.9362C19.5009 36.5607 19.6522 38.1853 19.9403 39.7736L14.0984 49.5862C13.7598 50.0866 12.5569 52.052 13.4429 53.7346C13.8391 54.4816 14.7539 55.3809 16.9005 55.3809H19.8755V62.7566C19.8538 63.199 19.8466 65.3168 21.2945 66.8543C21.9356 67.5288 23.1026 68.341 25.0547 68.341H40.3041L45.5841 64.6423L43.7977 62.1112L39.3172 65.2442H25.0474C24.3703 65.2442 23.8805 65.0847 23.5636 64.7438C23.0377 64.1926 22.9585 63.2135 22.9729 62.8944V52.2913H16.8933C16.5763 52.2913 16.3746 52.2623 16.245 52.2333C16.3026 51.9795 16.4827 51.5878 16.6772 51.305L23.2106 40.3248L23.0881 39.7373C22.764 38.1708 22.5983 36.5535 22.5983 34.9362C22.6055 21.9543 33.2088 11.3947 46.2468 11.3947C59.2849 11.3947 69.8954 21.9543 69.8954 34.9362C69.8954 41.7172 66.9564 48.1792 61.8276 52.6467L61.2946 53.1109V77.2978H64.3992V54.5033C69.8738 49.4629 73 42.3772 73 34.9362C73 20.2499 60.9993 8.29785 46.2468 8.29785Z" fill="#4C5776"/>
<path d="M35.7374 70.981H32.6328V77.2979H35.7374V70.981Z" fill="#4C5776"/>
<path d="M53.5152 20.3804H53.4648C50.2449 20.3804 47.8462 22.3023 46.4704 23.7963C45.0946 22.3023 42.7031 20.3804 39.476 20.3804H39.4255C36.5298 20.3804 31.5667 22.121 31.3218 28.6409C31.0193 36.7782 43.5458 45.7858 46.0814 46.4385L46.4704 46.54L46.8594 46.4385C49.4021 45.7858 61.9215 36.7782 61.619 28.6409C61.3741 22.121 56.411 20.3804 53.5152 20.3804ZM46.4704 43.2909C43.834 42.0507 34.2175 34.4502 34.4264 28.757C34.6137 23.731 38.626 23.4772 39.4327 23.4772H39.4832C42.8687 23.4772 45.1234 27.0817 45.145 27.1107L46.4704 29.2864L47.803 27.1179C47.8246 27.0817 50.0793 23.4772 53.4648 23.4772H53.4936H53.5152C54.3148 23.4772 58.3271 23.731 58.5144 28.757C58.7233 34.4502 49.114 42.0507 46.4704 43.2909Z" fill="#4C5776"/>
</svg>
