<svg width="86" height="86" viewBox="0 0 86 86" fill="none" xmlns="http://www.w3.org/2000/svg">
<path d="M78 49.8874C78 48.0396 77.177 46.3726 75.8717 45.2065C77.177 44.0403 78 42.3733 78 40.5256C78 37.0026 75.0321 34.1283 71.3824 34.1283H54.3812C59.5356 26.2036 59.1283 19.1659 56.7922 14.9695C55.3207 12.3334 53.101 10.8552 50.848 11.0112C46.1675 11.3479 44.6211 15.4293 44.4549 17.5809C44.3884 18.0654 43.4406 24.8158 39.0344 29.546C35.8504 32.9622 30.3052 34.3254 27.3955 34.8263V32.724C27.3955 31.7797 26.6057 31.0077 25.6247 31.0077H9.77078C8.78979 31.0077 8 31.7714 8 32.724C8 33.6767 8.78979 34.4404 9.77078 34.4404H23.8373V70.4012H9.77078C8.78979 70.4012 8 71.1649 8 72.1175C8 73.0702 8.78979 73.8257 9.77078 73.8257H25.6081C26.5891 73.8257 27.3789 73.0619 27.3789 72.1175V70.8775L33.9881 74.7536C34.2625 74.9179 34.5867 75 34.9109 75H71.3741C75.0238 75 77.9917 72.134 77.9917 68.6028C77.9917 66.755 77.1686 65.088 75.8634 63.9219C77.1686 62.7557 77.9917 61.0887 77.9917 59.241C77.9917 57.3932 77.1686 55.7262 75.8634 54.5601C77.1686 53.3939 77.9917 51.7269 77.9917 49.8792L78 49.8874ZM61.9466 56.2846H71.3824C73.0784 56.2846 74.4584 57.615 74.4584 59.2574C74.4584 60.8998 73.0784 62.2302 71.3824 62.2302H61.9466C60.9656 62.2302 60.1758 62.9939 60.1758 63.9465C60.1758 64.8991 60.9656 65.6628 61.9466 65.6628H71.3824C73.0784 65.6628 74.4584 66.9932 74.4584 68.6356C74.4584 70.278 73.0784 71.6084 71.3824 71.6084H35.4097L27.3789 66.9029V38.3411C30.5297 37.8648 37.4881 36.3456 41.6532 31.8782C46.9572 26.1872 47.9299 18.3118 47.9715 17.9751C47.9715 17.9505 47.9715 17.9258 47.9715 17.9012C47.9798 17.7698 48.2292 14.6738 51.0974 14.4603C51.7209 14.4028 52.7934 15.0762 53.658 16.6201C55.6366 20.1759 55.753 27.0741 49.5594 34.8181C49.1437 35.3355 49.0689 36.0335 49.3682 36.6166C49.6675 37.1997 50.2827 37.5774 50.9561 37.5774H71.3575C73.0534 37.5774 74.4335 38.9078 74.4335 40.5502C74.4335 42.1926 73.0534 43.523 71.3575 43.523H61.9216C60.9406 43.523 60.1508 44.2867 60.1508 45.2393C60.1508 46.1919 60.9406 46.9556 61.9216 46.9556H71.3575C73.0534 46.9556 74.4335 48.286 74.4335 49.9284C74.4335 51.5708 73.0534 52.9012 71.3575 52.9012H61.9216C60.9406 52.9012 60.1508 53.6649 60.1508 54.6175C60.1508 55.5701 60.9406 56.3257 61.9216 56.3257L61.9466 56.2846Z" fill="#4C5776"/>
</svg>
