<svg width="86" height="86" viewBox="0 0 86 86" fill="none" xmlns="http://www.w3.org/2000/svg">
<path d="M64.6274 26.2085C70.5587 25.6918 77.6731 22.4242 78 22.2722L76.8636 19.6126C76.7857 19.6506 68.6828 23.3665 63.1251 23.3665C58.6183 23.3665 52.0798 20.9272 49.6902 19.9773V19.7494C49.6902 17.1353 47.6508 15 45.1367 15H40.8711C38.3569 15 36.3176 17.1277 36.3176 19.7494V19.9773C33.9279 20.9348 27.3973 23.3665 22.8827 23.3665C17.3095 23.3665 9.21428 19.6506 9.13644 19.6126L8 22.2722C8.32692 22.4242 15.4336 25.6918 21.3726 26.2085L17.2083 42.5615H13.5732V44.0129C13.5732 49.5298 17.8777 54.0132 23.1707 54.0132C28.4637 54.0132 32.7682 49.5222 32.7682 44.0129V42.5615H29.1331L24.9532 26.1553C29.0397 25.6994 33.7178 24.0884 36.3176 23.0929V24.2024C36.3176 26.824 38.3569 28.9517 40.8711 28.9517H41.6106V55.6622C38.427 56.2245 35.7883 58.6486 34.8698 61.8781H23.5988C21.0846 61.8781 19.0453 64.0059 19.0453 66.6275V69.0896H16.9514V72H69.0642V69.0896H66.9703V66.6275C66.9703 64.0059 64.9309 61.8781 62.4168 61.8781H51.1458C50.2273 58.6486 47.5886 56.2169 44.405 55.6622V28.9441H45.1444C47.6586 28.9441 49.698 26.8164 49.698 24.1948V23.0853C52.29 24.0808 56.9681 25.6918 61.0624 26.1477L56.8825 42.5539H53.2474V44.0053C53.2474 49.5222 57.5519 54.0056 62.8449 54.0056C68.1379 54.0056 72.4423 49.5146 72.4423 44.0053V42.5539H68.8073L64.6429 26.2009L64.6274 26.2085ZM29.8259 45.4719C29.1798 48.6863 26.4399 51.1104 23.1629 51.1104C19.8859 51.1104 17.146 48.6863 16.4999 45.4719H29.8181H29.8259ZM26.2375 42.5615H20.0961L23.1707 30.5019L26.2453 42.5615H26.2375ZM64.1681 66.6275V69.0896H21.8241V66.6275C21.8241 65.6169 22.618 64.7886 23.5832 64.7886H62.4012C63.3742 64.7886 64.1603 65.6093 64.1603 66.6275H64.1681ZM48.1646 61.8781H37.8354C38.7539 59.8416 40.7466 58.4434 42.9961 58.4434C45.2456 58.4434 47.2383 59.8416 48.1568 61.8781H48.1646ZM46.8958 24.2024C46.8958 25.213 46.1019 26.0413 45.1367 26.0413H40.8711C39.8981 26.0413 39.112 25.2206 39.112 24.2024V19.7494C39.112 18.7387 39.9059 17.9104 40.8711 17.9104H45.1367C46.1096 17.9104 46.8958 18.7311 46.8958 19.7494V24.2024ZM62.8293 30.5019L65.9039 42.5615H59.7625L62.8371 30.5019H62.8293ZM62.8293 51.1104C59.5523 51.1104 56.8124 48.6863 56.1664 45.4719H69.4845C68.8384 48.6863 66.0985 51.1104 62.8215 51.1104H62.8293Z" fill="#4C5776"/>
</svg>
