<svg width="86" height="86" viewBox="0 0 86 86" fill="none" xmlns="http://www.w3.org/2000/svg">
<path d="M49.263 42.5866L49.726 42.7106L50.1891 42.5866C53.2319 41.7763 68.2146 30.5062 67.8508 20.3275C67.5614 12.1746 61.6163 10 58.1517 10H58.0939C54.2407 10 51.3715 12.4062 49.726 14.2666C48.0806 12.4144 45.2114 10.0083 41.3582 10.0083H41.3003C37.8358 10.0083 31.8906 12.1829 31.6012 20.3358C31.2374 30.5062 46.2284 41.7763 49.263 42.5949V42.5866ZM41.3003 13.878H41.3582C45.4098 13.878 48.1137 18.3844 48.1302 18.4257L49.7095 21.1461L51.3053 18.434C51.3301 18.3844 54.034 13.8862 58.0856 13.8862H58.1187H58.1435C59.1026 13.8862 63.9067 14.2005 64.13 20.4846C64.3863 27.6039 52.8764 37.1128 49.7178 38.659C46.5592 37.1128 35.0492 27.6039 35.3056 20.4846C35.5288 14.2005 40.3329 13.8862 41.292 13.8862L41.3003 13.878Z" fill="#4C5776"/>
<path d="M76.1609 42.8429C73.7465 40.4615 70.5796 41.2718 68.5869 42.694L53.9597 54.8406H51.6114C51.7272 54.2618 51.7768 53.6582 51.7355 53.0298C51.6445 51.6655 51.0905 50.4913 50.1231 49.6314C47.9402 47.6966 44.3351 47.8867 43.6653 47.9446H34.4293C31.7337 47.9446 30.1544 47.8289 26.665 47.1756C22.663 46.4315 20.1494 49.0113 19.7111 49.5074L15.9903 53.1786L15.8993 53.3109C15.0311 54.6422 13.6668 54.7579 13.5262 54.7662H12.0958V49.4578H8.21777V76H12.104V72.7422H49.6352C49.7841 72.7587 50.0487 72.7835 50.3877 72.7835C51.7851 72.7835 54.5881 72.4114 57.1266 69.8482L76.2932 49.5156L76.3677 49.3999C77.2359 48.0521 78.3108 44.9514 76.1609 42.8263V42.8429ZM74.0028 47.6304L55.0843 67.6983C52.6781 70.1128 50.0487 69.7572 49.9495 69.7407L49.8337 69.7241H12.104V57.8091H13.5841C13.6999 57.8091 16.445 57.7346 18.2311 55.1714L21.77 51.6738L21.8692 51.5663C21.9354 51.4918 23.5147 49.6727 26.1607 50.1689C29.9146 50.8717 31.6758 50.9792 34.4375 50.9792H43.8638C44.6327 50.8965 47.0885 50.9213 48.2378 51.9383C48.6099 52.2691 48.8001 52.6825 48.8332 53.2283C49.0316 56.2794 45.6332 56.9739 45.4183 57.0153H30.8655V60.0499H45.4596C46.1211 60.0499 48.3701 59.5207 49.9991 57.8669H54.9933L70.2902 45.1581C70.6706 44.9018 72.7129 43.6036 74.1599 45.0341C74.9372 45.803 74.2261 47.2418 74.0111 47.6221L74.0028 47.6304Z" fill="#4C5776"/>
</svg>
