<svg width="86" height="86" viewBox="0 0 86 86" fill="none" xmlns="http://www.w3.org/2000/svg">
<path d="M42.6069 23.5575C45.2847 23.5575 47.4677 21.3745 47.4677 18.6967C47.4677 16.0189 45.2847 13.8359 42.6069 13.8359C39.9291 13.8359 37.7461 16.0189 37.7461 18.6967C37.7461 21.3745 39.9291 23.5575 42.6069 23.5575ZM42.6069 15.4295C44.4115 15.4295 45.8741 16.8994 45.8741 18.6967C45.8741 20.4941 44.4042 21.9639 42.6069 21.9639C40.8096 21.9639 39.3397 20.4941 39.3397 18.6967C39.3397 16.8994 40.8096 15.4295 42.6069 15.4295Z" fill="#4C5776"/>
<path d="M43.434 54.7327L43.4485 41.6057C43.4485 41.1691 43.092 40.8125 42.6554 40.8125C42.2188 40.8125 41.8622 41.1691 41.8622 41.6057L41.8477 54.7327C41.8477 55.1693 42.2042 55.5258 42.6408 55.5258C43.0774 55.5258 43.434 55.1693 43.434 54.7327Z" fill="#4C5776"/>
<path d="M18.8854 33.2942C21.8761 33.2942 24.3138 30.8566 24.3138 27.8659C24.3138 24.8752 21.8761 22.4375 18.8854 22.4375C15.8947 22.4375 13.457 24.8752 13.457 27.8659C13.457 30.8566 15.8947 33.2942 18.8854 33.2942ZM18.8854 24.0238C21.0029 24.0238 22.7275 25.7484 22.7275 27.8659C22.7275 29.9834 21.0029 31.7079 18.8854 31.7079C16.7679 31.7079 15.0433 29.9834 15.0433 27.8659C15.0433 25.7484 16.7679 24.0238 18.8854 24.0238Z" fill="#4C5776"/>
<path d="M18.9444 53.1797C18.5078 53.1797 18.1513 53.5362 18.1513 53.9728L18.1367 68.9409C18.1367 69.3775 18.4933 69.734 18.9299 69.734C19.3665 69.734 19.723 69.3775 19.723 68.9409L19.7376 53.9728C19.7376 53.5362 19.381 53.1797 18.9444 53.1797Z" fill="#4C5776"/>
<path d="M66.2916 33.2942C69.2823 33.2942 71.72 30.8566 71.72 27.8659C71.72 24.8752 69.2823 22.4375 66.2916 22.4375C63.301 22.4375 60.8633 24.8752 60.8633 27.8659C60.8633 30.8566 63.301 33.2942 66.2916 33.2942ZM66.2916 24.0238C68.4091 24.0238 70.1337 25.7484 70.1337 27.8659C70.1337 29.9834 68.4091 31.7079 66.2916 31.7079C64.1741 31.7079 62.4496 29.9834 62.4496 27.8659C62.4496 25.7484 64.1741 24.0238 66.2916 24.0238Z" fill="#4C5776"/>
<path d="M66.3507 53.1797C65.9141 53.1797 65.5575 53.5362 65.5575 53.9728L65.543 68.9409C65.543 69.3775 65.8995 69.734 66.3361 69.734C66.7727 69.734 67.1293 69.3775 67.1293 68.9409L67.1438 53.9728C67.1438 53.5362 66.7873 53.1797 66.3507 53.1797Z" fill="#4C5776"/>
<path d="M72.586 66.1236V55.0995C72.9571 55.2814 73.3719 55.3833 73.8085 55.3833C75.3584 55.3833 76.6245 54.1244 76.6245 52.5672V40.7281C76.6245 37.1335 73.6993 34.2083 70.1047 34.2083H62.4933C58.8987 34.2083 55.9734 37.1335 55.9734 40.7281V52.5672C55.9734 54.1171 57.2323 55.3833 58.7895 55.3833C59.2261 55.3833 59.6409 55.2814 60.012 55.0995V65.083L45.6625 58.243C49.2644 57.8864 52.3861 56.8386 52.3861 55.0122C52.3861 53.455 50.2395 52.6182 48.2238 52.1743L48.2529 30.6937C48.2529 30.2207 48.5003 29.7841 48.886 29.5585C51.542 28.0231 53.1938 25.2435 53.1938 22.3037V14.5687C53.1938 13.157 52.0441 12 50.6251 12C49.2062 12 48.0565 13.1497 48.0565 14.5687L48.0783 20.8557C48.0783 22.6748 46.6084 24.1593 44.7965 24.1665H39.2663C36.0573 24.1665 33.445 26.7861 33.445 29.9878V40.3716C33.445 41.7833 34.5947 42.9402 36.0136 42.9402C36.3629 42.9402 36.6904 42.8675 36.9887 42.7438V52.2325C35.075 52.6764 33.0302 53.5059 33.0302 55.0194C33.0302 56.8168 36.0355 57.8501 39.5574 58.2284L25.1715 65.083V55.0995C25.5426 55.2814 25.9573 55.3833 26.3939 55.3833C27.9439 55.3833 29.21 54.1244 29.21 52.5672V40.7281C29.21 37.1335 26.2848 34.2083 22.6901 34.2083H15.0788C11.4841 34.2083 8.55892 37.1335 8.55892 40.7281V52.5672C8.55892 54.1171 9.81778 55.3833 11.375 55.3833C11.8116 55.3833 12.2263 55.2814 12.5974 55.0995V66.1745C10.4436 66.662 8.08594 67.5789 8.08594 69.2671C8.08594 71.8285 13.7472 73 19.0009 73C23.5124 73 28.3077 72.1414 29.5884 70.2785H55.8206C57.1013 72.1414 61.8966 73 66.4081 73C71.6691 73 77.3231 71.8285 77.3231 69.2671C77.3231 67.5352 74.8636 66.6111 72.5787 66.1236H72.586ZM55.5951 68.6922H29.8212C29.421 67.5498 27.8493 66.8294 26.1756 66.371L42.5844 58.5486L59.0878 66.4146C57.487 66.8731 55.9807 67.5862 55.5951 68.6995V68.6922ZM34.6238 55.0267C34.6456 54.8957 35.1623 54.3427 36.996 53.8697V54.7357C36.996 55.1723 37.3525 55.5288 37.7891 55.5288C38.2257 55.5288 38.5823 55.1723 38.5823 54.7357V30.308C38.5823 29.8714 38.2257 29.5149 37.7891 29.5149C37.3525 29.5149 36.996 29.8714 36.996 30.308V40.3716C36.996 40.9101 36.5594 41.3467 36.0209 41.3467C35.4825 41.3467 35.0459 40.9101 35.0459 40.3716V29.9878C35.0459 27.6593 36.9451 25.7601 39.2736 25.7601H44.8111C47.5034 25.7456 49.6864 23.5407 49.6792 20.8484L49.6573 14.5614C49.6573 14.0229 50.0939 13.5863 50.6324 13.5863C51.1709 13.5863 51.6075 14.0229 51.6075 14.5614V22.311C51.6075 24.6904 50.2613 26.9389 48.0929 28.1905C47.2124 28.6999 46.6666 29.6604 46.6666 30.6937L46.6375 54.7284C46.6375 55.165 46.9941 55.5215 47.4307 55.5215C47.8673 55.5215 48.2238 55.165 48.2238 54.7284V53.8115C50.2176 54.2918 50.7707 54.8812 50.7998 55.0122C50.7052 55.507 48.0783 56.8022 42.7154 56.8022C37.3525 56.8022 34.7257 55.507 34.6311 55.0194L34.6238 55.0267ZM25.9428 70.5842C24.1018 71.1226 21.635 71.4137 19.0082 71.4137C16.3813 71.4137 13.9145 71.1226 12.0735 70.5842C10.087 70.0093 9.67952 69.3981 9.67952 69.2671C9.67952 69.107 10.2253 68.4012 12.6047 67.8118V68.9469C12.6047 69.3835 12.9613 69.7401 13.3979 69.7401C13.8345 69.7401 14.191 69.3835 14.191 68.9469V41.0992C14.191 40.6627 13.8345 40.3061 13.3979 40.3061C12.9613 40.3061 12.6047 40.6627 12.6047 41.0992V52.5745C12.6047 53.2512 12.059 53.797 11.3823 53.797C10.7055 53.797 10.1598 53.2512 10.1598 52.5745V40.7354C10.1598 38.014 12.3719 35.8019 15.0933 35.8019H22.7047C25.4261 35.8019 27.6382 38.014 27.6382 40.7354V52.5745C27.6382 53.2512 27.0925 53.797 26.4158 53.797C25.739 53.797 25.1933 53.2512 25.1933 52.5745V41.0992C25.1933 40.6627 24.8367 40.3061 24.4001 40.3061C23.9635 40.3061 23.607 40.6627 23.607 41.0992V68.9469C23.607 69.3835 23.9635 69.7401 24.4001 69.7401C24.8367 69.7401 25.1933 69.3835 25.1933 68.9469V67.7608C27.58 68.3211 28.3514 69.0488 28.3514 69.2744C28.3514 69.4053 27.9439 70.0093 25.9573 70.5914L25.9428 70.5842ZM73.35 70.5842C71.5091 71.1226 69.0423 71.4137 66.4154 71.4137C63.7886 71.4137 61.3218 71.1226 59.4808 70.5842C57.8217 70.1039 57.2687 69.6018 57.1304 69.369C57.1304 69.318 57.1086 69.2744 57.094 69.2307C57.1595 69.0197 57.778 68.3648 60.012 67.8045V68.9396C60.012 69.3762 60.3685 69.7328 60.8051 69.7328C61.2417 69.7328 61.5983 69.3762 61.5983 68.9396V41.092C61.5983 40.6554 61.2417 40.2988 60.8051 40.2988C60.3685 40.2988 60.012 40.6554 60.012 41.092V52.5672C60.012 53.2439 59.4662 53.7897 58.7895 53.7897C58.1128 53.7897 57.567 53.2439 57.567 52.5672V40.7281C57.567 38.0067 59.7791 35.7946 62.5006 35.7946H70.1119C72.8334 35.7946 75.0455 38.0067 75.0455 40.7281V52.5672C75.0455 53.2439 74.4997 53.7897 73.823 53.7897C73.1463 53.7897 72.6005 53.2439 72.6005 52.5672V41.092C72.6005 40.6554 72.244 40.2988 71.8074 40.2988C71.3708 40.2988 71.0142 40.6554 71.0142 41.092V68.9396C71.0142 69.3762 71.3708 69.7328 71.8074 69.7328C72.244 69.7328 72.6005 69.3762 72.6005 68.9396V67.7535C74.9873 68.3139 75.7586 69.0415 75.7586 69.2671C75.7586 69.3981 75.3511 70.002 73.3646 70.5842H73.35Z" fill="#4C5776"/>
</svg>
