<svg width="86" height="86" viewBox="0 0 86 86" fill="none" xmlns="http://www.w3.org/2000/svg">
<path d="M35.5268 23.6123C38.1719 23.6123 40.3192 21.4589 40.3192 18.8062C40.3192 16.1535 38.1719 14 35.5268 14C32.8817 14 30.7344 16.1535 30.7344 18.8062C30.7344 21.4589 32.8817 23.6123 35.5268 23.6123ZM35.5268 15.6244C37.2729 15.6244 38.6994 17.0476 38.6994 18.8062C38.6994 20.5647 37.2803 21.9879 35.5268 21.9879C33.7733 21.9879 32.3541 20.5647 32.3541 18.8062C32.3541 17.0476 33.7733 15.6244 35.5268 15.6244Z" fill="#4C5776"/>
<path d="M77.7967 70.4237L73.1455 64.8277C72.5139 63.7174 69.7796 58.9858 68.3679 58.181C67.0528 57.4284 61.6957 56.9217 60.0462 56.7802L53.4928 50.7519C53.4408 50.7072 53.3888 50.67 53.3294 50.6327L50.61 49.1722V29.7464C50.6843 29.4334 50.6843 29.1056 50.61 28.7926V24.7763H61.079C61.5248 24.7763 61.8889 24.4112 61.8889 23.9641V16.8107C61.8889 16.3636 61.5248 15.9985 61.079 15.9985H50.61V15.8122C50.61 15.3651 50.2459 15 49.8001 15C49.3543 15 48.9902 15.3651 48.9902 15.8122V27.2203C48.7079 27.1607 48.4106 27.1607 48.1209 27.2203L44.391 28.04C44.2424 28.0698 44.0789 28.04 43.9526 27.958L39.7026 25.1936C38.6549 24.5155 37.4438 24.1504 36.1956 24.1504H32.2204C29.9988 24.1504 27.8961 25.3277 26.7296 27.2278L21.2165 36.2068C20.8895 36.7358 20.8227 37.3766 21.0307 37.9653C21.2388 38.554 21.692 39.0085 22.279 39.2171C23.1334 39.5226 24.1068 39.2171 24.6343 38.4794L29.5902 31.5422L28.3642 52.7787C28.3271 53.4568 28.5648 54.12 29.0329 54.6118C29.1815 54.7683 29.3524 54.9024 29.5308 55.0142L27.4429 55.4463C27.3909 55.4613 27.3314 55.4762 27.2794 55.4985L24.2777 56.8174C23.9805 56.9441 23.7947 57.2421 23.7947 57.5626V61.4373L21.536 64.4551L16.1268 61.9142C15.7925 61.7577 15.3987 61.8471 15.1609 62.1303L8.19149 70.4237C7.90172 70.7665 7.9463 71.2806 8.28808 71.5712C8.62987 71.8618 9.14254 71.8171 9.43232 71.4744L15.9782 63.6653L21.4245 66.2286C21.7737 66.3925 22.1898 66.2882 22.4201 65.9827L25.2362 62.2122C25.3402 62.0707 25.3996 61.8993 25.3996 61.7205V58.1065L27.8441 57.0335L30.6898 56.4448L26.789 63.2405L17.3454 70.2971C16.9887 70.5653 16.9144 71.072 17.1819 71.4371C17.3379 71.6532 17.5831 71.765 17.8358 71.765C18.0067 71.765 18.1776 71.7128 18.3187 71.601L27.8961 64.4402C27.9853 64.3732 28.0596 64.2912 28.1116 64.1943L32.8149 56.0052L33.2087 55.9232C33.3647 55.8934 33.5059 55.8115 33.6173 55.6997L36.8123 52.4956L41.248 51.7802C41.3 51.7728 41.3521 51.7579 41.4041 51.743L47.6379 49.4256L52.4823 52.0261L54.9343 54.2839L48.2843 61.8322L36.463 61.2883C36.151 61.2734 35.8612 61.4373 35.7126 61.7055L31.5815 69.2389C31.366 69.6339 31.5072 70.1257 31.901 70.3418C32.0273 70.4088 32.161 70.4461 32.2948 70.4461C32.5845 70.4461 32.8594 70.297 33.008 70.0213L36.894 62.9276L48.5964 63.4715C48.8416 63.4864 49.0794 63.3821 49.2428 63.1958L50.9815 61.2212L58.0029 65.0438L58.3447 69.1272C58.3819 69.5519 58.7311 69.8723 59.1546 69.8723C59.1769 69.8723 59.1992 69.8723 59.2215 69.8723C59.6673 69.8351 60.0016 69.4401 59.9645 68.993L59.5855 64.47C59.5632 64.1943 59.4072 63.9559 59.162 63.8218L52.0811 59.9694L56.1305 55.3793L59.1694 58.1736C59.3032 58.2928 59.4741 58.3673 59.6524 58.3822C62.461 58.6132 66.7779 59.1348 67.5803 59.5968C68.2713 59.9917 70.2997 63.0692 71.7858 65.6995C71.8081 65.7442 71.8378 65.7815 71.8675 65.8187L76.5633 71.4669C76.7268 71.6607 76.9571 71.7575 77.1875 71.7575C77.3732 71.7575 77.5515 71.6979 77.7076 71.5712C78.0493 71.2806 78.1013 70.7739 77.8116 70.4237H77.7967ZM60.2691 17.6229V23.1519H50.61V17.6229H60.2691ZM23.3043 37.5406C23.1929 37.697 22.9923 37.7567 22.8139 37.697C22.643 37.6374 22.5762 37.5033 22.5539 37.4362C22.5316 37.3617 22.5019 37.2202 22.591 37.0711L28.1042 28.0922C28.9735 26.6689 30.5487 25.7897 32.213 25.7897H36.1881C37.1243 25.7897 38.0308 26.0579 38.811 26.5721L43.061 29.3365C43.5514 29.657 44.1606 29.7687 44.7253 29.6421L48.4552 28.8224C48.6633 28.7777 48.8787 28.882 48.9828 29.0683V29.5079C48.9308 29.6048 48.849 29.6868 48.745 29.7315L44.495 31.5049C44.3612 31.5571 44.2201 31.5645 44.0863 31.5198L38.7812 29.6942C38.5509 29.6122 38.2908 29.6421 38.0828 29.7762C37.8748 29.9103 37.741 30.1264 37.7113 30.3723L37.05 36.5272C37.0054 36.9296 37.2655 37.3021 37.6593 37.4064L43.7594 38.934C44.0715 39.0085 44.2721 39.2991 44.2498 39.6195L43.6182 47.682C43.5885 48.0247 43.3062 48.2855 42.9644 48.2855C42.6003 48.2855 42.3105 47.9949 42.3105 47.6298V43.3825C42.3105 42.2499 41.4709 41.2812 40.3564 41.1247L34.4792 40.305C34.0408 40.2454 33.6396 40.5435 33.5653 40.9831L31.6335 53.0693C31.5666 53.4792 31.2174 53.7772 30.8087 53.7772C30.5784 53.7772 30.3629 53.6804 30.1995 53.5164C30.036 53.345 29.9617 53.1215 29.9691 52.8905L31.3586 28.8522C31.3808 28.4871 31.1579 28.1592 30.8162 28.04C30.727 28.0102 30.6378 27.9953 30.5487 27.9953C30.2961 27.9953 30.0434 28.1145 29.8874 28.3381L23.2969 37.5555L23.3043 37.5406ZM40.9062 50.1931L36.2922 50.9308C36.1213 50.9606 35.9652 51.0351 35.8463 51.1618L33.0303 53.9859C33.1269 53.7772 33.1938 53.5611 33.2309 53.3227L35.0365 42.0263L40.1261 42.7417C40.4456 42.7864 40.6833 43.0621 40.6833 43.3899V47.6373C40.6833 48.5985 41.2777 49.4181 42.1099 49.7535L40.8988 50.208L40.9062 50.1931ZM47.4076 47.7714L44.9854 48.673C45.1265 48.4047 45.2157 48.1141 45.238 47.8012L45.8696 39.7387C45.9587 38.6285 45.238 37.6225 44.1532 37.3543L38.7367 35.9981L39.2122 31.5571L43.5588 33.0548C44.064 33.2262 44.6213 33.2113 45.1191 33.0026L48.9828 31.3857V48.3079L48.0689 47.8161C47.8608 47.7043 47.6231 47.6894 47.4002 47.7714H47.4076Z" fill="#4C5776"/>
</svg>
