<svg width="86" height="86" viewBox="0 0 86 86" fill="none" xmlns="http://www.w3.org/2000/svg">
<path d="M56.2161 26.0104C60.3615 26.0104 63.7291 22.6428 63.7291 18.4974C63.7291 14.352 60.3615 10.9844 56.2161 10.9844C52.0707 10.9844 48.7031 14.352 48.7031 18.4974C48.7031 22.6428 52.0707 26.0104 56.2161 26.0104ZM56.2161 12.7882C59.3603 12.7882 61.9253 15.3449 61.9253 18.4974C61.9253 21.6499 59.3686 24.2066 56.2161 24.2066C53.0636 24.2066 50.5069 21.6499 50.5069 18.4974C50.5069 15.3449 53.0636 12.7882 56.2161 12.7882Z" fill="#4C5776"/>
<path d="M69.2593 8C67.1742 8 65.478 9.69622 65.478 11.7896L65.5111 22.0165C65.5193 25.1856 62.9543 27.7754 59.7853 27.7837H56.9803L50.7912 27.792C45.7853 27.792 41.7227 31.8629 41.7227 36.8605V53.7482C41.7227 55.8333 43.4189 57.5295 45.504 57.5295C46.2321 57.5295 46.9023 57.3227 47.4815 56.9669V77.0981C47.4815 77.5945 47.887 78 48.3834 78C48.8799 78 49.2853 77.5945 49.2853 77.0981V37.3818C49.2853 36.8853 48.8799 36.4799 48.3834 36.4799C47.887 36.4799 47.4815 36.8853 47.4815 37.3818V53.7482C47.4815 54.8404 46.5962 55.7257 45.504 55.7257C44.4118 55.7257 43.5264 54.8404 43.5264 53.7482V36.8605C43.5264 32.8558 46.7865 29.5957 50.7912 29.5957H59.7936C63.9555 29.5709 67.3314 26.1702 67.3231 22L67.29 11.773C67.29 10.6808 68.1754 9.79551 69.2676 9.79551C70.3598 9.79551 71.2451 10.6808 71.2451 11.773V24.3747C71.2451 28.3794 68.9862 32.169 65.3373 34.2789C64.0217 35.0402 63.2108 36.4716 63.2108 38.0189L63.1612 77.0981C63.1612 77.5945 63.5666 78 64.0631 78C64.5595 78 64.965 77.5945 64.965 77.0981L65.0146 38.0189C65.0146 37.1087 65.4862 36.2813 66.2392 35.8428C70.4342 33.4184 73.0489 29.0248 73.0489 24.3747V11.7813C73.0489 9.69622 71.3527 8 69.2676 8H69.2593Z" fill="#4C5776"/>
<path d="M56.3017 54.8516C55.8053 54.8516 55.3998 55.257 55.3998 55.7535L55.375 77.101C55.375 77.5974 55.7804 78.0028 56.2769 78.0028C56.7733 78.0028 57.1788 77.5974 57.1788 77.101L57.2036 55.7535C57.2036 55.257 56.7982 54.8516 56.3017 54.8516Z" fill="#4C5776"/>
<path d="M31.3035 57.6016H13.1167C12.6203 57.6016 12.2148 58.007 12.2148 58.5035V76.6902C12.2148 77.1867 12.6203 77.5921 13.1167 77.5921H31.3035C31.7999 77.5921 32.2054 77.1867 32.2054 76.6902V58.5035C32.2054 58.007 31.7999 57.6016 31.3035 57.6016ZM30.4016 75.7883H14.0186V59.4053H30.4016V75.7883Z" fill="#4C5776"/>
<path d="M31.3035 33.0391H13.1167C12.6203 33.0391 12.2148 33.4445 12.2148 33.941V52.1277C12.2148 52.6242 12.6203 53.0296 13.1167 53.0296H31.3035C31.7999 53.0296 32.2054 52.6242 32.2054 52.1277V33.941C32.2054 33.4445 31.7999 33.0391 31.3035 33.0391ZM30.4016 51.2258H14.0186V34.8428H30.4016V51.2258Z" fill="#4C5776"/>
<path d="M31.3035 8.46875H13.1167C12.6203 8.46875 12.2148 8.87419 12.2148 9.37064V27.5574C12.2148 28.0538 12.6203 28.4593 13.1167 28.4593H31.3035C31.7999 28.4593 32.2054 28.0538 32.2054 27.5574V9.37064C32.2054 8.87419 31.7999 8.46875 31.3035 8.46875ZM30.4016 26.6555H14.0186V10.2725H30.4016V26.6555Z" fill="#4C5776"/>
<path d="M19.239 23.2985C19.4128 23.4806 19.6445 23.5799 19.8927 23.5799C19.8927 23.5799 19.9093 23.5799 19.9175 23.5799C20.174 23.5799 20.414 23.4558 20.5795 23.2654L28.4814 14.0066C28.8041 13.626 28.7627 13.055 28.3821 12.7324C28.0015 12.4097 27.4305 12.451 27.1078 12.8316L19.8596 21.3293L16.4837 17.7714C16.1445 17.4073 15.5653 17.3907 15.2095 17.7383C14.8454 18.0775 14.8289 18.6567 15.1764 19.0125L19.239 23.3068V23.2985Z" fill="#4C5776"/>
<path d="M19.6844 48.3689C19.8581 48.5509 20.0898 48.6502 20.338 48.6502C20.338 48.6502 20.3546 48.6502 20.3628 48.6502C20.6193 48.6502 20.8593 48.5261 21.0248 48.3358L28.9267 39.0769C29.2494 38.6963 29.208 38.1254 28.8274 37.8027C28.4468 37.48 27.8758 37.5213 27.5532 37.902L20.3049 46.3996L16.929 42.8417C16.5898 42.4776 16.0106 42.4611 15.6548 42.8086C15.2907 43.1478 15.2742 43.727 15.6217 44.0828L19.6844 48.3771V48.3689Z" fill="#4C5776"/>
<path d="M20.0086 71.8454C20.1823 72.0275 20.414 72.1267 20.6622 72.1267C20.6622 72.1267 20.6788 72.1267 20.6871 72.1267C20.9436 72.1267 21.1835 72.0026 21.349 71.8123L29.2509 62.5535C29.5736 62.1728 29.5322 61.6019 29.1516 61.2792C28.771 60.9565 28.2001 60.9979 27.8774 61.3785L20.6291 69.8762L17.2533 66.3182C16.914 65.9542 16.3348 65.9376 15.979 66.2851C15.615 66.6244 15.5984 67.2036 15.9459 67.5594L20.0086 71.8537V71.8454Z" fill="#4C5776"/>
</svg>
