<svg width="32" height="32" viewBox="0 0 32 32" fill="none" xmlns="http://www.w3.org/2000/svg">
<g clip-path="url(#clip0_590_2622)">
<path d="M16 26C21.5228 26 26 21.5228 26 16C26 10.4772 21.5228 6 16 6C10.4772 6 6 10.4772 6 16C6 21.5228 10.4772 26 16 26Z" stroke="#4C5776" stroke-width="2"/>
<path fill-rule="evenodd" clip-rule="evenodd" d="M11.2667 16.7742C10.9111 16.4186 10.9111 15.842 11.2667 15.4864C11.6224 15.1307 12.1989 15.1307 12.5546 15.4864L14.4864 17.4182L19.6378 12.2667C19.9934 11.9111 20.57 11.9111 20.9257 12.2667C21.2813 12.6224 21.2813 13.1989 20.9257 13.5546L15.1303 19.3499C14.8001 19.6802 14.2793 19.7038 13.9219 19.4207L13.8424 19.3499L11.2667 16.7742Z" fill="#4C5776"/>
</g>
<defs>
<clipPath id="clip0_590_2622">
<rect width="32" height="32" fill="white"/>
</clipPath>
</defs>
</svg>
