<svg width="86" height="86" viewBox="0 0 86 86" fill="none" xmlns="http://www.w3.org/2000/svg">
<path d="M25.9297 25.7107L28.548 26.4126C29.9326 26.8026 31.1284 26.1503 31.7263 25.6185L33.0481 24.8457C34.7033 23.8744 36.8621 24.5267 36.881 24.5337L50.2428 28.3482C50.7463 28.5326 51.3757 28.8445 51.5834 29.3479C51.7785 29.823 51.5583 30.3618 51.5583 30.3618L51.5205 30.454C50.9226 31.9854 49.5316 31.6097 49.1351 31.4679L43.9742 29.9931C40.116 28.7736 38.53 30.8156 38.1398 31.4466L35.2068 35.3745L35.1502 35.4596C34.2816 36.828 31.9089 36.3955 31.6319 36.3388L29.2718 35.5943L28.5291 38.1964L30.9459 38.9621L31.0214 38.9834C31.0907 38.9976 31.8082 39.1677 32.7585 39.1677C34.1684 39.1677 36.1069 38.799 37.2649 37.0194L40.2167 33.0702L40.286 33.0277L40.3426 32.8646C40.4559 32.7086 41.1419 31.9216 43.2567 32.5952L48.3169 34.0345C49.9533 34.6442 52.7415 34.4599 53.9059 31.5175C54.0443 31.1913 54.573 29.8159 53.9877 28.3269C53.5219 27.15 52.5338 26.2921 51.0422 25.7674L37.6237 21.9317C37.3027 21.8324 34.3446 20.9958 31.8208 22.4776L30.2158 23.4206L30.09 23.5553C30.09 23.5553 29.6934 23.924 29.2277 23.7964L26.6283 23.0945L26.9367 21.9033L16.6904 18.6277L15.9414 21.2227L23.7646 23.7255L18.3708 44.7831L10.5602 42.9467L10 45.5984L20.2212 48.002L20.9072 45.3148L23.5695 46.0168L24.1926 43.3863L21.5744 42.6986L25.9234 25.7178L25.9297 25.7107Z" fill="#4C5776"/>
<path d="M80 43.0673L78.7034 40.7205L71.6732 45.0454L60.338 24.9663L67.4563 20.4073L66.1157 18.0889L56.8134 24.0446L57.8016 25.7958L55.8379 26.9728L57.1092 29.3338L59.1107 28.1355L67.9158 43.7409L65.0584 50.0085L43.2628 63.0756C42.9796 63.189 41.3746 63.7775 40.7893 62.9338C40.2166 62.1042 40.2103 61.459 40.2606 61.1542C40.2984 60.906 40.3865 60.7642 40.4369 60.7075C40.5124 60.6649 40.5753 60.6224 40.632 60.5869L52.0742 53.8939L50.8217 51.5187L39.1214 58.3607L39.0333 58.4174C39.0333 58.4174 39.0144 58.4386 39.0019 58.4457C37.12 59.5731 34.6906 60.3672 34.2437 59.7149C33.5892 58.7648 33.9416 58.1409 34.3507 57.7934L35.5151 57.0703C35.5151 57.0703 35.5402 57.0561 35.5465 57.049L46.7307 50.0865L45.4216 47.7468L34.2248 54.7093C32.45 55.8224 29.5296 56.893 28.8939 55.9004C28.6485 55.5175 28.6611 55.2481 28.6988 55.0638C28.8373 54.3335 29.6744 53.6032 29.9702 53.3976L42.4068 45.3432L41.0599 43.0319L30.6185 49.7958C30.0709 49.7107 28.9884 49.4059 28.617 48.2927C28.4534 47.8106 29.2779 47.0307 29.7562 46.7258L35.2507 43.1098L33.885 40.8056L28.4156 44.4073C27.2387 45.1447 25.4449 46.9739 26.1876 49.1932C26.5589 50.3134 27.2324 51.0791 27.975 51.5967C27.3457 52.1639 26.4456 53.1707 26.1876 54.5036C25.9925 55.5033 26.1939 56.5101 26.7729 57.4106C27.5219 58.5875 28.6611 58.9917 29.8695 58.9917C30.3415 58.9917 30.8262 58.9279 31.3045 58.8286C31.3234 59.5093 31.5185 60.3672 32.1604 61.296C32.8402 62.2886 33.8472 62.6431 34.9297 62.6431C35.8486 62.6431 36.8242 62.3878 37.7179 62.0475C37.8312 62.8912 38.1711 63.735 38.7123 64.522C39.5305 65.706 40.7201 66.0889 41.8593 66.0889C42.8096 66.0889 43.7222 65.8194 44.3516 65.5288L67.0346 51.937L69.4955 46.5344L70.7417 48.7465L79.9748 43.0602L80 43.0673Z" fill="#4C5776"/>
</svg>
