<svg width="86" height="86" viewBox="0 0 86 86" fill="none" xmlns="http://www.w3.org/2000/svg">
<path d="M15.008 77.999H70.106V67.9966L66.8617 64.6653V49.6617C66.8617 35.8556 55.9757 24.6641 42.553 24.6641C29.1304 24.6641 18.2443 35.8556 18.2443 49.6617V64.6653L15 67.9966V77.999H15.008Z" stroke="#4C5776" stroke-width="2" stroke-linecap="round" stroke-linejoin="round"/>
<path d="M47.4202 31.3345C47.4202 26.0044 42.5617 24.6719 42.5617 24.6719C42.5617 24.6719 37.7031 26.0044 37.7031 31.3345" stroke="#4C5776" stroke-width="2" stroke-linecap="round" stroke-linejoin="round"/>
<path d="M37.6938 18.0024L27.9688 8H57.1439L47.4189 18.0024" stroke="#4C5776" stroke-width="2" stroke-linecap="round" stroke-linejoin="round"/>
<path d="M34.457 64.6683H50.6628V54.6659H34.457V44.6719H50.6628" stroke="#4C5776" stroke-width="2" stroke-linecap="round" stroke-linejoin="round"/>
<path d="M42.5586 44.6711V38" stroke="#4C5776" stroke-width="2" stroke-linecap="round" stroke-linejoin="round"/>
<path d="M42.5586 64.6641V71.3351" stroke="#4C5776" stroke-width="2" stroke-linecap="round" stroke-linejoin="round"/>
<path d="M50.6628 18H34.457V24.6627H50.6628V18Z" stroke="#4C5776" stroke-width="2" stroke-linecap="round" stroke-linejoin="round"/>
</svg>
