<svg width="20" height="16" viewBox="0 0 20 16" fill="none" xmlns="http://www.w3.org/2000/svg">
<path d="M18.543 14.9855C18.5848 14.9859 18.6263 14.978 18.6649 14.9623C18.7034 14.9466 18.7382 14.9235 18.7671 14.8943C18.7959 14.8651 18.8183 14.8305 18.8327 14.7927C18.8471 14.7548 18.8533 14.7145 18.8509 14.6743C18.8509 14.4536 18.7127 14.3481 18.4292 14.3481H17.9712V15.5036H18.1435V14.9999H18.3552L18.36 15.0061L18.6886 15.5036H18.8728L18.5193 14.9887L18.543 14.9855ZM18.3438 14.8697H18.144V14.4791H18.3972C18.528 14.4791 18.6771 14.4997 18.6771 14.6647C18.6771 14.8545 18.5262 14.8697 18.3427 14.8697" fill="#0A66C2"/>
<path d="M14.0488 13.5372H11.6057V9.85058C11.6057 8.97147 11.5895 7.83978 10.3351 7.83978C9.06269 7.83978 8.868 8.79761 8.868 9.78658V13.537H6.42494V5.95575H8.77027V6.99181H8.80311C9.03782 6.6051 9.37698 6.28699 9.78448 6.07133C10.192 5.85568 10.6525 5.75056 11.1171 5.76718C13.5933 5.76718 14.0498 7.33659 14.0498 9.37829L14.0488 13.5372ZM3.66838 4.91946C3.38798 4.9195 3.11386 4.83943 2.88068 4.68936C2.64751 4.53929 2.46577 4.32596 2.35842 4.07635C2.25107 3.82675 2.22293 3.55207 2.27759 3.28706C2.33224 3.02205 2.46723 2.77861 2.66547 2.58752C2.8637 2.39643 3.11629 2.26627 3.3913 2.21351C3.6663 2.16075 3.95136 2.18776 4.21043 2.29111C4.46951 2.39447 4.69096 2.56953 4.84678 2.79416C5.00261 3.01879 5.08581 3.2829 5.08586 3.55309C5.08589 3.73249 5.04925 3.91014 4.97803 4.0759C4.90682 4.24166 4.80243 4.39228 4.6708 4.51915C4.53918 4.64603 4.38289 4.74669 4.2109 4.81537C4.03891 4.88405 3.85456 4.91942 3.66838 4.91946ZM4.8899 13.5372H2.44431V5.95575H4.8899V13.5372ZM15.2667 0.00108244H1.21669C0.897793 -0.0023853 0.590498 0.116285 0.362357 0.331017C0.134216 0.545749 0.00389196 0.838974 0 1.14626V14.741C0.00375875 15.0484 0.134006 15.3419 0.36214 15.5568C0.590273 15.7718 0.897635 15.8907 1.21669 15.8874H15.2667C15.5864 15.8913 15.8947 15.7727 16.1237 15.5577C16.3527 15.3428 16.4838 15.049 16.4883 14.741V1.14528C16.4837 0.837384 16.3525 0.543826 16.1235 0.329099C15.8944 0.114372 15.5863 -0.00395958 15.2667 0.000101165" fill="#0A66C2"/>
<path d="M18.365 13.8333C18.0677 13.836 17.7837 13.9521 17.5751 14.1561C17.3664 14.3601 17.25 14.6354 17.2515 14.9218C17.2529 15.2082 17.372 15.4824 17.5827 15.6845C17.7934 15.8865 18.0785 16 18.3758 16C18.673 16 18.9582 15.8865 19.1689 15.6845C19.3796 15.4824 19.4987 15.2082 19.5001 14.9218C19.5015 14.6354 19.3852 14.3601 19.1765 14.1561C18.9678 13.9521 18.6838 13.836 18.3866 13.8333H18.365ZM18.365 15.8759C18.17 15.8791 17.9785 15.8264 17.8146 15.7246C17.6507 15.6229 17.5217 15.4765 17.4441 15.3042C17.3665 15.1318 17.3437 14.9411 17.3786 14.7563C17.4134 14.5714 17.5044 14.4007 17.6399 14.2656C17.7755 14.1306 17.9496 14.0373 18.1402 13.9976C18.3307 13.9578 18.5293 13.9735 18.7106 14.0425C18.892 14.1115 19.048 14.2308 19.1591 14.3852C19.2701 14.5397 19.331 14.7224 19.3343 14.9103C19.3343 14.9157 19.3343 14.9208 19.3343 14.9262C19.3397 15.1726 19.2434 15.4111 19.0664 15.5891C18.8895 15.7671 18.6464 15.8701 18.3907 15.8754H18.3652" fill="#0A66C2"/>
</svg>
