<svg width="23" height="22" viewBox="0 0 23 22" fill="none" xmlns="http://www.w3.org/2000/svg">
<path fill-rule="evenodd" clip-rule="evenodd" d="M20.1216 10.3461C20.1216 10.5733 20.2737 10.6564 20.4583 10.529V10.5345L22.6633 9.03829C22.8479 8.91083 23 8.99395 23 9.22116V20.803C23 21.0302 22.8642 21.0912 22.6959 20.9416L17.6179 16.4086C17.5337 16.3337 17.4236 16.2353 17.3136 16.1368C17.2037 16.0385 17.0938 15.9403 17.0097 15.8655L15.9724 14.9401C15.9171 14.8909 15.8513 14.8328 15.7824 14.772C15.6415 14.6477 15.488 14.5122 15.3858 14.4191C15.2283 14.2806 15.2555 14.07 15.4401 13.9426L18.3457 11.9642C18.5303 11.8368 18.6824 11.5486 18.6824 11.3214V6.58338C18.6824 6.35617 18.6172 6.10126 18.5358 6.01814C18.4543 5.93501 18.2045 5.86851 17.9818 5.86851H14.7776C14.5549 5.86851 14.3757 5.68564 14.3757 5.45844V2.18338C14.3757 1.95617 14.3051 1.70126 14.2236 1.61814C14.1421 1.53501 13.8923 1.46851 13.6697 1.46851H4.71405C4.49681 1.46851 4.31216 1.65139 4.31216 1.87859V11.3103C4.31216 11.5375 4.46423 11.8257 4.64888 11.9531L7.55443 13.9315C7.73908 14.0534 7.7608 14.2695 7.60874 14.4081C7.45667 14.5466 7.19599 14.7793 7.02763 14.929L5.99032 15.8544C5.90628 15.9291 5.79654 16.0272 5.68676 16.1254L5.68607 16.1261C5.57613 16.2244 5.4662 16.3227 5.38205 16.3975L0.304132 20.9305C0.135773 21.0801 0 21.0191 0 20.7919V9.21008C0 8.98287 0.152066 8.89975 0.336718 9.0272L2.54168 10.5234C2.72633 10.6509 2.87839 10.5678 2.87839 10.3406V0.410076C2.87839 0.188413 3.05762 0 3.28028 0H14.2671C14.4897 0 14.7993 0.132997 14.9568 0.293703L19.8338 5.27557C19.9913 5.43627 20.1216 5.75214 20.1216 5.97935V7.33155L23 8.80006H20.1216V10.3461ZM0 8.80006L2.87296 7.33154V8.80006H0ZM13.9195 14.5411C13.7457 14.3804 13.409 14.2529 13.17 14.2529H9.82456C9.59103 14.2529 9.25431 14.3804 9.07509 14.5411L7.98347 15.5164C7.89688 15.5937 7.78063 15.6971 7.66427 15.8007L7.66314 15.8017C7.54634 15.9056 7.42954 16.0096 7.34262 16.0872L1.04274 21.7118C0.868949 21.867 0.912397 22 1.14593 22H21.8432C22.0767 22 22.1256 21.8725 21.9518 21.7118L15.6519 16.0872C15.565 16.0095 15.4481 15.9055 15.3313 15.8015L15.3312 15.8015C15.2146 15.6977 15.0979 15.5939 15.0111 15.5164L13.9195 14.5411ZM13.0073 9.26006L13.2897 6.91044L13.2843 6.91598H12.3176L12.2578 7.14873C12.0134 6.94369 11.7419 6.8384 11.4486 6.8384C10.987 6.8384 10.5851 7.02682 10.2538 7.40364C9.92251 7.78601 9.75415 8.28475 9.75415 8.86661C9.75415 9.44848 9.90079 9.91951 10.1941 10.2742C10.4873 10.6344 10.8458 10.8117 11.2585 10.8117C11.6278 10.8117 11.9428 10.651 12.2089 10.3351C12.4044 10.6399 12.6977 10.7895 13.0833 10.7895C13.6536 10.7895 14.1423 10.5402 14.5551 10.0359C14.9678 9.5316 15.1742 8.92203 15.1742 8.21271C15.1742 7.30944 14.8375 6.53916 14.1586 5.90188C13.4852 5.2646 12.6923 4.94873 11.6387 4.94873C10.5851 4.94873 9.68355 5.30893 8.93951 6.03488C8.19547 6.76082 7.82617 7.70843 7.82617 8.73916C7.82617 9.76989 8.17918 10.6621 8.8852 11.4046C9.59123 12.1528 10.5471 12.524 11.7473 12.524C12.6108 12.524 13.4526 12.3079 14.2781 11.8757L13.9414 11.0167C13.1865 11.4213 12.4533 11.6208 11.7419 11.6208C10.8186 11.6208 10.1072 11.3326 9.60209 10.7618C9.09701 10.1855 8.84719 9.51498 8.84719 8.7447C8.84719 7.90792 9.1133 7.20969 9.6564 6.64999C10.1995 6.09029 10.8621 5.80767 11.6495 5.80767C12.3719 5.80767 12.9856 6.04042 13.4852 6.50037C13.9848 6.96032 14.2347 7.53664 14.2347 8.23488C14.2347 8.71145 14.1206 9.11044 13.8925 9.42631C13.6644 9.74218 13.4255 9.90289 13.1811 9.90289C13.0453 9.90289 12.9801 9.83085 12.9801 9.68122C12.9801 9.55931 12.991 9.42077 13.0073 9.26006ZM11.932 9.44848C11.7582 9.68676 11.5572 9.80314 11.3183 9.80314C11.1553 9.80314 11.025 9.71447 10.9272 9.54268C10.8295 9.36535 10.7806 9.15477 10.7806 8.89432C10.7806 8.57291 10.8458 8.318 10.987 8.12404C11.1227 7.93009 11.2965 7.83034 11.5029 7.83034C11.6821 7.83034 11.8396 7.90792 11.9808 8.052C12.1166 8.20163 12.1872 8.39558 12.1872 8.63941C12.1872 8.9442 12.1057 9.21019 11.932 9.44848Z" fill="#CC0000"/>
</svg>
