<svg width="64" height="70" viewBox="0 0 64 70" fill="none" xmlns="http://www.w3.org/2000/svg">
<path d="M56.8345 33.6709H49.7712C46.2313 33.6709 43.347 36.6508 43.347 40.3215V51.8957C43.347 53.478 44.5925 54.7712 46.1248 54.7712C46.4362 54.7712 46.7393 54.715 47.0261 54.6105V66.241C47.0261 66.8675 47.1818 67.4619 47.444 67.984H1.94201V1.99237H38.8156V12.2815C38.8156 12.8357 39.2499 13.2855 39.7825 13.2855H49.7302V22.7071C48.5912 23.7352 47.8701 25.2533 47.8701 26.94C47.8701 30.0404 50.3038 32.5625 53.3028 32.5625C56.3019 32.5625 58.7356 30.0404 58.7356 26.94C58.7356 23.8396 56.3019 21.3176 53.3028 21.3176C52.7375 21.3176 52.1884 21.4059 51.6722 21.5746V12.2815V12.2654C51.6722 12.2092 51.6722 12.1449 51.6558 12.0887C51.6558 12.0887 51.6558 12.0726 51.6558 12.0646C51.6476 12.0164 51.6312 11.9682 51.6149 11.92C51.6149 11.904 51.5985 11.8879 51.5903 11.8638C51.5739 11.8236 51.5575 11.7915 51.5329 11.7514C51.5247 11.7353 51.5165 11.7192 51.5083 11.7112C51.4756 11.663 51.4428 11.6148 51.4018 11.5746L40.4708 0.28154C40.4299 0.24138 40.3889 0.201219 40.3397 0.169091C40.3233 0.161059 40.3151 0.153027 40.2988 0.144995C40.266 0.120899 40.225 0.104834 40.1922 0.0887702C40.1758 0.0807381 40.1595 0.072706 40.1431 0.064674C40.0939 0.0486098 40.0529 0.0325456 40.0038 0.0164815C40.0038 0.0164815 39.9874 0.0164815 39.9792 0.0164815C39.9218 0.0084494 39.8645 0.000417324 39.8071 0.000417324H39.7907H0.966908C0.434289 -0.0156468 0 0.43415 0 0.988363V68.988C0 69.5422 0.434289 69.992 0.966908 69.992H50.6971C50.6971 69.992 50.7299 69.992 50.7545 69.992C51.7623 69.9598 52.6637 69.502 53.3028 68.7952C53.9666 69.5341 54.9089 70 55.9577 70C57.9571 70 59.5795 68.3213 59.5795 66.249V54.6186C59.8581 54.723 60.1613 54.7792 60.4809 54.7792C62.0132 54.7792 63.2587 53.486 63.2587 51.9037V40.3295C63.2587 36.6669 60.3744 33.6789 56.8345 33.6789V33.6709ZM56.7935 26.94C56.7935 28.932 55.2285 30.5545 53.3028 30.5545C51.3772 30.5545 49.8121 28.932 49.8121 26.94C49.8121 24.9481 51.3772 23.3256 53.3028 23.3256C55.2285 23.3256 56.7935 24.9481 56.7935 26.94ZM40.7576 11.2855V3.41405L48.3618 11.2775H40.7576V11.2855ZM61.3167 51.9037C61.3167 52.3856 60.9398 52.7712 60.4809 52.7712C60.022 52.7712 59.6451 52.3856 59.6451 51.9037V43.5423C59.6451 42.9881 59.2108 42.5383 58.6782 42.5383C58.1456 42.5383 57.7113 42.9881 57.7113 43.5423V49.5664C57.6785 49.6708 57.6539 49.7833 57.6539 49.9037V66.249C57.6539 67.2129 56.9001 67.992 55.9741 67.992C55.0482 67.992 54.2943 67.2129 54.2943 66.249L54.2779 53.0202C54.2779 52.466 53.8437 52.0162 53.311 52.0162C52.7784 52.0162 52.3441 52.466 52.3441 53.0202L52.3605 66.249C52.3605 67.2129 51.6067 67.992 50.6807 67.992C49.7548 67.992 49.0009 67.2129 49.0009 66.249V49.9037C49.0009 49.7833 48.9763 49.6708 48.9436 49.5664V43.5423C48.9436 42.9881 48.5093 42.5383 47.9767 42.5383C47.444 42.5383 47.0097 42.9881 47.0097 43.5423V51.9037C47.0097 52.3856 46.6328 52.7712 46.1739 52.7712C45.7151 52.7712 45.3381 52.3856 45.3381 51.9037V40.3295C45.3381 37.7673 47.3539 35.687 49.8203 35.687H56.8837C59.3583 35.687 61.3659 37.7673 61.3659 40.3295V51.9037H61.3167Z" fill="#4C5776"/>
<path d="M19.6504 10.5196C19.6504 9.96542 19.2162 9.51562 18.6835 9.51562H6.06456C5.53195 9.51562 5.09766 9.96542 5.09766 10.5196V23.5718C5.09766 24.126 5.53195 24.5758 6.06456 24.5758H18.6753C19.208 24.5758 19.6422 24.126 19.6422 23.5718V10.5196H19.6504ZM17.7084 22.5678H7.03147V11.5236H17.7084V22.5678Z" fill="#4C5776"/>
<path d="M7.90665 19.1055L10.8156 21.3625C10.9876 21.491 11.1925 21.5633 11.3973 21.5633C11.4465 21.5633 11.4875 21.5633 11.5366 21.5553C11.7907 21.5151 12.0201 21.3705 12.1758 21.1617L17.0267 14.3907C17.3463 13.9489 17.2562 13.3144 16.8219 12.9851C16.3876 12.6557 15.7812 12.7521 15.4616 13.1939L11.1925 19.1537L9.06202 17.4991C8.63593 17.1698 8.02137 17.2581 7.70179 17.6999C7.38222 18.1416 7.46417 18.7762 7.89845 19.1055H7.90665Z" fill="#4C5776"/>
<path d="M19.6504 28.3399C19.6504 27.7857 19.2162 27.3359 18.6835 27.3359H6.06456C5.53195 27.3359 5.09766 27.7857 5.09766 28.3399V41.3921C5.09766 41.9463 5.53195 42.3961 6.06456 42.3961H18.6753C19.208 42.3961 19.6422 41.9463 19.6422 41.3921V28.3399H19.6504ZM17.7084 40.3881H7.03147V29.344H17.7084V40.3881Z" fill="#4C5776"/>
<path d="M7.90665 36.9258L10.8156 39.1828C10.9876 39.3113 11.1925 39.3836 11.3973 39.3836C11.4465 39.3836 11.4875 39.3836 11.5366 39.3756C11.7907 39.3354 12.0201 39.1909 12.1758 38.982L17.0267 32.211C17.3463 31.7692 17.2562 31.1347 16.8219 30.8054C16.3876 30.476 15.7812 30.5724 15.4616 31.0142L11.1925 36.974L9.06202 35.3194C8.63593 34.9901 8.02137 35.0784 7.70179 35.5202C7.38222 35.962 7.46417 36.5965 7.89845 36.9258H7.90665Z" fill="#4C5776"/>
<path d="M18.6835 45.1484H6.06456C5.53195 45.1484 5.09766 45.5982 5.09766 46.1524V59.2046C5.09766 59.7588 5.53195 60.2086 6.06456 60.2086H18.6753C19.208 60.2086 19.6422 59.7588 19.6422 59.2046V46.1524C19.6422 45.5982 19.208 45.1484 18.6753 45.1484H18.6835ZM17.7166 58.2006H7.03967V47.1565H17.7166V58.2006Z" fill="#4C5776"/>
<path d="M7.90665 54.7383L10.8156 56.9953C10.9876 57.1238 11.1925 57.1961 11.3973 57.1961C11.4465 57.1961 11.4875 57.1961 11.5366 57.1881C11.7907 57.1479 12.0201 57.0034 12.1758 56.7945L17.0267 50.0235C17.3463 49.5817 17.2562 48.9472 16.8219 48.6179C16.3876 48.2885 15.7812 48.3849 15.4616 48.8267L11.1925 54.7865L9.06202 53.1319C8.63593 52.8026 8.02137 52.8909 7.70179 53.3327C7.38222 53.7745 7.46417 54.409 7.89845 54.7383H7.90665Z" fill="#4C5776"/>
<path d="M35.1787 12.7812H22.0763C21.5437 12.7812 21.1094 13.231 21.1094 13.7853C21.1094 14.3395 21.5437 14.7893 22.0763 14.7893H35.1787C35.7113 14.7893 36.1456 14.3395 36.1456 13.7853C36.1456 13.231 35.7113 12.7812 35.1787 12.7812Z" fill="#4C5776"/>
<path d="M22.0763 19.5549H29.8361C30.3687 19.5549 30.803 19.1051 30.803 18.5509C30.803 17.9967 30.3687 17.5469 29.8361 17.5469H22.0763C21.5437 17.5469 21.1094 17.9967 21.1094 18.5509C21.1094 19.1051 21.5437 19.5549 22.0763 19.5549Z" fill="#4C5776"/>
<path d="M35.1787 30.5938H22.0763C21.5437 30.5938 21.1094 31.0435 21.1094 31.5978C21.1094 32.152 21.5437 32.6018 22.0763 32.6018H35.1787C35.7113 32.6018 36.1456 32.152 36.1456 31.5978C36.1456 31.0435 35.7113 30.5938 35.1787 30.5938Z" fill="#4C5776"/>
<path d="M22.0763 37.3752H29.8361C30.3687 37.3752 30.803 36.9254 30.803 36.3712C30.803 35.817 30.3687 35.3672 29.8361 35.3672H22.0763C21.5437 35.3672 21.1094 35.817 21.1094 36.3712C21.1094 36.9254 21.5437 37.3752 22.0763 37.3752Z" fill="#4C5776"/>
<path d="M36.1456 49.4103C36.1456 48.856 35.7113 48.4062 35.1787 48.4062H22.0763C21.5437 48.4062 21.1094 48.856 21.1094 49.4103C21.1094 49.9645 21.5437 50.4143 22.0763 50.4143H35.1787C35.7113 50.4143 36.1456 49.9645 36.1456 49.4103Z" fill="#4C5776"/>
<path d="M22.0763 53.1797C21.5437 53.1797 21.1094 53.6295 21.1094 54.1837C21.1094 54.7379 21.5437 55.1877 22.0763 55.1877H29.8361C30.3687 55.1877 30.803 54.7379 30.803 54.1837C30.803 53.6295 30.3687 53.1797 29.8361 53.1797H22.0763Z" fill="#4C5776"/>
</svg>
