<svg width="86" height="86" viewBox="0 0 86 86" fill="none" xmlns="http://www.w3.org/2000/svg">
<path d="M44.2206 18.5C40.7115 18.5 37.8516 21.3864 37.8516 24.9439C37.8516 28.5014 40.7044 31.3878 44.2206 31.3878C47.7367 31.3878 50.5895 28.5014 50.5895 24.9439C50.5895 21.3864 47.7367 18.5 44.2206 18.5ZM44.2206 29.8075C41.5674 29.8075 39.4135 27.6283 39.4135 24.9439C39.4135 22.2596 41.5674 20.0803 44.2206 20.0803C46.8737 20.0803 49.0276 22.2596 49.0276 24.9439C49.0276 27.6283 46.8737 29.8075 44.2206 29.8075Z" fill="#4C5776"/>
<path d="M71.9929 36.929C71.9929 21.0249 59.2121 8.09375 43.5 8.09375C27.7879 8.09375 15 21.0249 15 36.929C15 44.6863 18.1381 52.1838 23.6299 57.5958C22.5743 60.7636 21.1051 63.0078 18.0026 63.917C17.753 63.9892 17.5533 64.184 17.4748 64.4366C17.3964 64.6892 17.4535 64.9634 17.6175 65.1654C17.7031 65.2664 19.6715 67.6838 23.1306 69.762C26.3401 71.6887 29.7706 72.6701 33.2369 72.6701C34.4208 72.6701 35.6119 72.5546 36.8029 72.3237V73.067C36.8029 75.3545 38.643 77.2162 40.9039 77.2162C42.2733 77.2162 43.4786 76.5307 44.2275 75.4916C44.9764 76.5379 46.1817 77.2162 47.5511 77.2162C49.8119 77.2162 51.652 75.3545 51.652 73.067V64.552C63.6625 60.9368 72 49.6437 72 36.9146L71.9929 36.929ZM56.2523 46.5625V41.3236C56.2523 37.0806 52.836 33.6241 48.6423 33.6241H39.7984C39.5203 33.6241 39.2492 33.6385 38.9854 33.6674C38.1866 33.6674 31.0972 33.9488 27.4598 43.7626C26.6967 45.8192 26.1333 47.8325 25.6554 49.7375C23.0094 45.9852 21.6186 41.5834 21.6186 36.9218C21.6186 24.7123 31.4324 14.783 43.5 14.783C55.5676 14.783 65.3814 24.7123 65.3814 36.9218C65.3814 44.1307 61.9936 50.755 56.2523 54.9186V46.5552V46.5625ZM46.2958 35.2044C45.3686 35.7384 44.4343 35.991 43.5071 35.9477C42.5942 35.9044 41.8026 35.5796 41.1678 35.2044H46.2958ZM23.9722 68.4415C21.9396 67.2292 20.4347 65.8582 19.5931 65.0067C22.667 63.6645 24.1719 60.9873 25.2346 57.6679C25.2489 57.6246 25.2631 57.5813 25.2774 57.5381C25.7481 56.0443 26.1333 54.4207 26.5327 52.7322C27.1389 50.1633 27.8307 47.2552 28.9219 44.3111C30.0488 41.2731 31.518 39.2526 32.9872 37.9104C32.4809 38.9423 32.1956 40.0969 32.1956 41.3164V55.4959C32.1956 57.1917 33.5578 58.5772 35.241 58.5772C35.8116 58.5772 36.3465 58.4112 36.8029 58.137V70.7145C32.4024 71.6526 28.0875 70.8949 23.9722 68.4343V68.4415ZM50.0901 73.0742C50.0901 74.4958 48.9489 75.6503 47.5439 75.6503C46.1389 75.6503 44.9977 74.4958 44.9977 73.0742L44.9692 56.8742C44.9692 56.4412 44.6197 56.0876 44.1918 56.0876C43.7639 56.0876 43.4144 56.4412 43.4144 56.8742L43.4429 73.067C43.4429 74.4885 42.3018 75.6431 40.8968 75.6431C39.4917 75.6431 38.3506 74.4885 38.3506 73.067V53.0497C38.3506 52.927 38.3221 52.8188 38.2721 52.7177V45.2564C38.2721 44.8234 37.9227 44.4698 37.4947 44.4698C37.0668 44.4698 36.7173 44.8234 36.7173 45.2564V55.4959C36.7173 56.3258 36.0469 56.9968 35.2339 56.9968C34.4208 56.9968 33.7504 56.3185 33.7504 55.4959V41.3164C33.7504 38.3073 35.9114 35.7961 38.7429 35.291C39.4062 35.9549 41.0965 37.3837 43.4144 37.5063C45.2973 37.6074 47.1303 36.828 48.8776 35.1972C52.1085 35.3199 54.6974 38.0187 54.6974 41.3164V55.4959C54.6974 56.3258 54.027 56.9968 53.214 56.9968C52.4009 56.9968 51.7305 56.3185 51.7305 55.4959V45.2564C51.7305 44.8234 51.381 44.4698 50.9531 44.4698C50.5251 44.4698 50.1757 44.8234 50.1757 45.2564V52.7177C50.1258 52.8188 50.0972 52.9342 50.0972 53.0497V73.067L50.0901 73.0742ZM51.6449 62.914V58.1442C52.1014 58.4256 52.6363 58.5844 53.2068 58.5844C54.298 58.5844 55.2609 57.9927 55.7958 57.1123C55.8243 57.0979 55.8529 57.0834 55.8814 57.0618C62.7995 52.6961 66.9362 45.1625 66.9362 36.9218C66.9362 23.8464 56.4234 13.2027 43.4929 13.2027C30.5623 13.2027 20.0567 23.8464 20.0567 36.929C20.0567 42.3627 21.8255 47.4717 25.1633 51.7075C25.1134 51.9312 25.0563 52.1477 25.0064 52.3642C24.714 53.6125 24.4287 54.7887 24.1363 55.8784C19.2365 50.7694 16.5548 44.0874 16.5548 36.9218C16.5548 21.898 28.6438 9.66685 43.5 9.66685C58.3562 9.66685 70.4381 21.8908 70.4381 36.9218C70.4381 48.7994 62.7568 59.3493 51.6449 62.9068V62.914Z" fill="#4C5776"/>
</svg>
