<svg id="report_action" xmlns="http://www.w3.org/2000/svg" width="25.675" height="25.675" viewBox="0 0 25.675 25.675">
  <path id="Path_25691" data-name="Path 25691" d="M239.726,292.105a.859.859,0,1,0,.859.859A.86.86,0,0,0,239.726,292.105Zm0,0" transform="translate(-226.889 -277.457)" fill="#f63333"/>
  <path id="Path_25692" data-name="Path 25692" d="M239.726,94.27a.86.86,0,0,0-.859.859V98.6a.859.859,0,0,0,1.719,0V95.128A.86.86,0,0,0,239.726,94.27Zm0,0" transform="translate(-226.889 -89.542)" fill="#f63333"/>
  <path id="Path_25693" data-name="Path 25693" d="M22.909,0H2.766A2.769,2.769,0,0,0,0,2.766V17.522a2.769,2.769,0,0,0,2.766,2.766H9.15l2.114,4.228a1.829,1.829,0,0,0,1.574,1.159,1.829,1.829,0,0,0,1.574-1.159l2.114-4.228h6.384a2.769,2.769,0,0,0,2.766-2.766V2.766A2.769,2.769,0,0,0,22.909,0ZM12.838,17.871A2.364,2.364,0,1,1,15.2,15.507a2.366,2.366,0,0,1-2.364,2.364ZM15.2,9.062a2.364,2.364,0,0,1-4.727,0V5.586a2.364,2.364,0,0,1,4.727,0Zm0,0" fill="#f63333"/>
</svg>
