<svg xmlns="http://www.w3.org/2000/svg" width="24" height="23" viewBox="0 0 24 23">
  <g id="unlock" transform="translate(-2 -3)">
    <path id="Path_25674" data-name="Path 25674" d="M11.36,8.24V10.4h3V8.24A6.18,6.18,0,1,0,2,8.24V12.8H5V8.24A3.177,3.177,0,0,1,8.12,5.12,3.056,3.056,0,0,1,11.36,8.24Z" transform="translate(0 1)" fill="#891fff"/>
    <path id="Path_25675" data-name="Path 25675" d="M23.12,10.8H9.68A1.64,1.64,0,0,0,8,12.48V22.56a1.64,1.64,0,0,0,1.68,1.68H23.12a1.64,1.64,0,0,0,1.68-1.68V12.48a1.807,1.807,0,0,0-1.68-1.68Zm-6.039,9.72H15.969V17.64A1.973,1.973,0,0,1,14.84,16.2a1.64,1.64,0,0,1,1.68-1.68A1.7,1.7,0,0,1,18.2,16.2c-.031.831-1.119,1.44-1.119,1.44Z" transform="translate(1.2 1.76)" fill="#891fff"/>
  </g>
</svg>
